<?xml version="1.0" encoding="utf-8"?>
<svg xmlns="http://www.w3.org/2000/svg" xmlns:xlink="http://www.w3.org/1999/xlink" width="800" height="600" viewBox="0 0 3200 2400">
<defs>
  <clipPath id="clip800">
    <rect x="0" y="0" width="3200" height="2400"/>
  </clipPath>
</defs>
<path clip-path="url(#clip800)" d="M0 2400 L3200 2400 L3200 0 L0 0  Z" fill="#ffffff" fill-rule="evenodd" fill-opacity="1"/>
<defs>
  <clipPath id="clip801">
    <rect x="640" y="0" width="2241" height="2241"/>
  </clipPath>
</defs>
<path clip-path="url(#clip800)" d="M120.177 2274.13 L3152.76 2274.13 L3152.76 131.032 L120.177 131.032  Z" fill="#ffffff" fill-rule="evenodd" fill-opacity="1"/>
<defs>
  <clipPath id="clip802">
    <rect x="120" y="131" width="3034" height="2144"/>
  </clipPath>
</defs>
<polyline clip-path="url(#clip802)" style="stroke:#000000; stroke-linecap:round; stroke-linejoin:round; stroke-width:2; stroke-opacity:0.1; fill:none" points="808.305,2274.13 808.305,131.032 "/>
<polyline clip-path="url(#clip802)" style="stroke:#000000; stroke-linecap:round; stroke-linejoin:round; stroke-width:2; stroke-opacity:0.1; fill:none" points="1561.18,2274.13 1561.18,131.032 "/>
<polyline clip-path="url(#clip802)" style="stroke:#000000; stroke-linecap:round; stroke-linejoin:round; stroke-width:2; stroke-opacity:0.1; fill:none" points="2314.05,2274.13 2314.05,131.032 "/>
<polyline clip-path="url(#clip802)" style="stroke:#000000; stroke-linecap:round; stroke-linejoin:round; stroke-width:2; stroke-opacity:0.1; fill:none" points="3066.93,2274.13 3066.93,131.032 "/>
<polyline clip-path="url(#clip800)" style="stroke:#000000; stroke-linecap:round; stroke-linejoin:round; stroke-width:4; stroke-opacity:1; fill:none" points="120.177,2274.13 3152.76,2274.13 "/>
<polyline clip-path="url(#clip800)" style="stroke:#000000; stroke-linecap:round; stroke-linejoin:round; stroke-width:4; stroke-opacity:1; fill:none" points="808.305,2274.13 808.305,2255.23 "/>
<polyline clip-path="url(#clip800)" style="stroke:#000000; stroke-linecap:round; stroke-linejoin:round; stroke-width:4; stroke-opacity:1; fill:none" points="1561.18,2274.13 1561.18,2255.23 "/>
<polyline clip-path="url(#clip800)" style="stroke:#000000; stroke-linecap:round; stroke-linejoin:round; stroke-width:4; stroke-opacity:1; fill:none" points="2314.05,2274.13 2314.05,2255.23 "/>
<polyline clip-path="url(#clip800)" style="stroke:#000000; stroke-linecap:round; stroke-linejoin:round; stroke-width:4; stroke-opacity:1; fill:none" points="3066.93,2274.13 3066.93,2255.23 "/>
<path clip-path="url(#clip800)" d="M798.582 2308.37 L816.939 2308.37 L816.939 2312.3 L802.865 2312.3 L802.865 2320.78 Q803.883 2320.43 804.902 2320.27 Q805.92 2320.08 806.939 2320.08 Q812.726 2320.08 816.105 2323.25 Q819.485 2326.42 819.485 2331.84 Q819.485 2337.42 816.013 2340.52 Q812.541 2343.6 806.221 2343.6 Q804.045 2343.6 801.777 2343.23 Q799.531 2342.86 797.124 2342.12 L797.124 2337.42 Q799.207 2338.55 801.43 2339.11 Q803.652 2339.66 806.129 2339.66 Q810.133 2339.66 812.471 2337.56 Q814.809 2335.45 814.809 2331.84 Q814.809 2328.23 812.471 2326.12 Q810.133 2324.02 806.129 2324.02 Q804.254 2324.02 802.379 2324.43 Q800.527 2324.85 798.582 2325.73 L798.582 2308.37 Z" fill="#000000" fill-rule="nonzero" fill-opacity="1" /><path clip-path="url(#clip800)" d="M1535.87 2338.99 L1543.51 2338.99 L1543.51 2312.63 L1535.2 2314.29 L1535.2 2310.03 L1543.46 2308.37 L1548.14 2308.37 L1548.14 2338.99 L1555.77 2338.99 L1555.77 2342.93 L1535.87 2342.93 L1535.87 2338.99 Z" fill="#000000" fill-rule="nonzero" fill-opacity="1" /><path clip-path="url(#clip800)" d="M1575.22 2311.45 Q1571.61 2311.45 1569.78 2315.01 Q1567.97 2318.55 1567.97 2325.68 Q1567.97 2332.79 1569.78 2336.35 Q1571.61 2339.9 1575.22 2339.9 Q1578.85 2339.9 1580.66 2336.35 Q1582.49 2332.79 1582.49 2325.68 Q1582.49 2318.55 1580.66 2315.01 Q1578.85 2311.45 1575.22 2311.45 M1575.22 2307.74 Q1581.03 2307.74 1584.08 2312.35 Q1587.16 2316.93 1587.16 2325.68 Q1587.16 2334.41 1584.08 2339.02 Q1581.03 2343.6 1575.22 2343.6 Q1569.41 2343.6 1566.33 2339.02 Q1563.27 2334.41 1563.27 2325.68 Q1563.27 2316.93 1566.33 2312.35 Q1569.41 2307.74 1575.22 2307.74 Z" fill="#000000" fill-rule="nonzero" fill-opacity="1" /><path clip-path="url(#clip800)" d="M2289.24 2338.99 L2296.88 2338.99 L2296.88 2312.63 L2288.57 2314.29 L2288.57 2310.03 L2296.83 2308.37 L2301.51 2308.37 L2301.51 2338.99 L2309.15 2338.99 L2309.15 2342.93 L2289.24 2342.93 L2289.24 2338.99 Z" fill="#000000" fill-rule="nonzero" fill-opacity="1" /><path clip-path="url(#clip800)" d="M2318.64 2308.37 L2336.99 2308.37 L2336.99 2312.3 L2322.92 2312.3 L2322.92 2320.78 Q2323.94 2320.43 2324.96 2320.27 Q2325.97 2320.08 2326.99 2320.08 Q2332.78 2320.08 2336.16 2323.25 Q2339.54 2326.42 2339.54 2331.84 Q2339.54 2337.42 2336.07 2340.52 Q2332.6 2343.6 2326.28 2343.6 Q2324.1 2343.6 2321.83 2343.23 Q2319.59 2342.86 2317.18 2342.12 L2317.18 2337.42 Q2319.26 2338.55 2321.48 2339.11 Q2323.71 2339.66 2326.18 2339.66 Q2330.19 2339.66 2332.53 2337.56 Q2334.86 2335.45 2334.86 2331.84 Q2334.86 2328.23 2332.53 2326.12 Q2330.19 2324.02 2326.18 2324.02 Q2324.31 2324.02 2322.43 2324.43 Q2320.58 2324.85 2318.64 2325.73 L2318.64 2308.37 Z" fill="#000000" fill-rule="nonzero" fill-opacity="1" /><path clip-path="url(#clip800)" d="M3045.7 2338.99 L3062.02 2338.99 L3062.02 2342.93 L3040.08 2342.93 L3040.08 2338.99 Q3042.74 2336.24 3047.32 2331.61 Q3051.93 2326.96 3053.11 2325.61 Q3055.35 2323.09 3056.23 2321.35 Q3057.14 2319.59 3057.14 2317.9 Q3057.14 2315.15 3055.19 2313.41 Q3053.27 2311.68 3050.17 2311.68 Q3047.97 2311.68 3045.52 2312.44 Q3043.09 2313.21 3040.31 2314.76 L3040.31 2310.03 Q3043.13 2308.9 3045.59 2308.32 Q3048.04 2307.74 3050.08 2307.74 Q3055.45 2307.74 3058.64 2310.43 Q3061.84 2313.11 3061.84 2317.6 Q3061.84 2319.73 3061.03 2321.65 Q3060.24 2323.55 3058.13 2326.15 Q3057.55 2326.82 3054.45 2330.03 Q3051.35 2333.23 3045.7 2338.99 Z" fill="#000000" fill-rule="nonzero" fill-opacity="1" /><path clip-path="url(#clip800)" d="M3081.84 2311.45 Q3078.22 2311.45 3076.4 2315.01 Q3074.59 2318.55 3074.59 2325.68 Q3074.59 2332.79 3076.4 2336.35 Q3078.22 2339.9 3081.84 2339.9 Q3085.47 2339.9 3087.28 2336.35 Q3089.1 2332.79 3089.1 2325.68 Q3089.1 2318.55 3087.28 2315.01 Q3085.47 2311.45 3081.84 2311.45 M3081.84 2307.74 Q3087.65 2307.74 3090.7 2312.35 Q3093.78 2316.93 3093.78 2325.68 Q3093.78 2334.41 3090.7 2339.02 Q3087.65 2343.6 3081.84 2343.6 Q3076.03 2343.6 3072.95 2339.02 Q3069.89 2334.41 3069.89 2325.68 Q3069.89 2316.93 3072.95 2312.35 Q3076.03 2307.74 3081.84 2307.74 Z" fill="#000000" fill-rule="nonzero" fill-opacity="1" /><polyline clip-path="url(#clip802)" style="stroke:#000000; stroke-linecap:round; stroke-linejoin:round; stroke-width:2; stroke-opacity:0.1; fill:none" points="120.177,2213.47 3152.76,2213.47 "/>
<polyline clip-path="url(#clip802)" style="stroke:#000000; stroke-linecap:round; stroke-linejoin:round; stroke-width:2; stroke-opacity:0.1; fill:none" points="120.177,1708.03 3152.76,1708.03 "/>
<polyline clip-path="url(#clip802)" style="stroke:#000000; stroke-linecap:round; stroke-linejoin:round; stroke-width:2; stroke-opacity:0.1; fill:none" points="120.177,1202.58 3152.76,1202.58 "/>
<polyline clip-path="url(#clip802)" style="stroke:#000000; stroke-linecap:round; stroke-linejoin:round; stroke-width:2; stroke-opacity:0.1; fill:none" points="120.177,697.133 3152.76,697.133 "/>
<polyline clip-path="url(#clip802)" style="stroke:#000000; stroke-linecap:round; stroke-linejoin:round; stroke-width:2; stroke-opacity:0.1; fill:none" points="120.177,191.686 3152.76,191.686 "/>
<polyline clip-path="url(#clip800)" style="stroke:#000000; stroke-linecap:round; stroke-linejoin:round; stroke-width:4; stroke-opacity:1; fill:none" points="120.177,2274.13 120.177,131.032 "/>
<polyline clip-path="url(#clip800)" style="stroke:#000000; stroke-linecap:round; stroke-linejoin:round; stroke-width:4; stroke-opacity:1; fill:none" points="120.177,2213.47 139.075,2213.47 "/>
<polyline clip-path="url(#clip800)" style="stroke:#000000; stroke-linecap:round; stroke-linejoin:round; stroke-width:4; stroke-opacity:1; fill:none" points="120.177,1708.03 139.075,1708.03 "/>
<polyline clip-path="url(#clip800)" style="stroke:#000000; stroke-linecap:round; stroke-linejoin:round; stroke-width:4; stroke-opacity:1; fill:none" points="120.177,1202.58 139.075,1202.58 "/>
<polyline clip-path="url(#clip800)" style="stroke:#000000; stroke-linecap:round; stroke-linejoin:round; stroke-width:4; stroke-opacity:1; fill:none" points="120.177,697.133 139.075,697.133 "/>
<polyline clip-path="url(#clip800)" style="stroke:#000000; stroke-linecap:round; stroke-linejoin:round; stroke-width:4; stroke-opacity:1; fill:none" points="120.177,191.686 139.075,191.686 "/>
<path clip-path="url(#clip800)" d="M55.8578 2226.82 L72.1772 2226.82 L72.1772 2230.75 L50.2328 2230.75 L50.2328 2226.82 Q52.8949 2224.06 57.4782 2219.43 Q62.0846 2214.78 63.2652 2213.44 Q65.5105 2210.92 66.3902 2209.18 Q67.2929 2207.42 67.2929 2205.73 Q67.2929 2202.98 65.3485 2201.24 Q63.4272 2199.5 60.3254 2199.5 Q58.1263 2199.5 55.6726 2200.27 Q53.2421 2201.03 50.4643 2202.58 L50.4643 2197.86 Q53.2884 2196.73 55.7421 2196.15 Q58.1958 2195.57 60.2328 2195.57 Q65.6031 2195.57 68.7976 2198.25 Q71.992 2200.94 71.992 2205.43 Q71.992 2207.56 71.1818 2209.48 Q70.3948 2211.38 68.2883 2213.97 Q67.7096 2214.64 64.6078 2217.86 Q61.5059 2221.06 55.8578 2226.82 Z" fill="#000000" fill-rule="nonzero" fill-opacity="1" /><path clip-path="url(#clip800)" d="M65.0476 1706.67 Q68.404 1707.39 70.279 1709.66 Q72.1772 1711.93 72.1772 1715.26 Q72.1772 1720.38 68.6587 1723.18 Q65.1402 1725.98 58.6587 1725.98 Q56.4828 1725.98 54.168 1725.54 Q51.8764 1725.12 49.4227 1724.27 L49.4227 1719.75 Q51.3671 1720.89 53.6819 1721.46 Q55.9967 1722.04 58.5198 1722.04 Q62.918 1722.04 65.2096 1720.31 Q67.5244 1718.57 67.5244 1715.26 Q67.5244 1712.21 65.3717 1710.49 Q63.242 1708.76 59.4226 1708.76 L55.3949 1708.76 L55.3949 1704.91 L59.6078 1704.91 Q63.0569 1704.91 64.8855 1703.55 Q66.7142 1702.16 66.7142 1699.57 Q66.7142 1696.9 64.8161 1695.49 Q62.9411 1694.06 59.4226 1694.06 Q57.5013 1694.06 55.3023 1694.47 Q53.1032 1694.89 50.4643 1695.77 L50.4643 1691.6 Q53.1264 1690.86 55.4412 1690.49 Q57.7791 1690.12 59.8393 1690.12 Q65.1633 1690.12 68.2652 1692.55 Q71.367 1694.96 71.367 1699.08 Q71.367 1701.95 69.7235 1703.94 Q68.08 1705.91 65.0476 1706.67 Z" fill="#000000" fill-rule="nonzero" fill-opacity="1" /><path clip-path="url(#clip800)" d="M62.5939 1189.37 L50.7884 1207.82 L62.5939 1207.82 L62.5939 1189.37 M61.367 1185.3 L67.2466 1185.3 L67.2466 1207.82 L72.1772 1207.82 L72.1772 1211.71 L67.2466 1211.71 L67.2466 1219.86 L62.5939 1219.86 L62.5939 1211.71 L46.9921 1211.71 L46.9921 1207.2 L61.367 1185.3 Z" fill="#000000" fill-rule="nonzero" fill-opacity="1" /><path clip-path="url(#clip800)" d="M51.2745 679.853 L69.6309 679.853 L69.6309 683.788 L55.5569 683.788 L55.5569 692.26 Q56.5754 691.913 57.5939 691.751 Q58.6124 691.566 59.6309 691.566 Q65.418 691.566 68.7976 694.737 Q72.1772 697.908 72.1772 703.325 Q72.1772 708.904 68.705 712.005 Q65.2328 715.084 58.9134 715.084 Q56.7374 715.084 54.4689 714.714 Q52.2236 714.343 49.8162 713.603 L49.8162 708.904 Q51.8995 710.038 54.1217 710.593 Q56.3439 711.149 58.8208 711.149 Q62.8254 711.149 65.1633 709.043 Q67.5013 706.936 67.5013 703.325 Q67.5013 699.714 65.1633 697.607 Q62.8254 695.501 58.8208 695.501 Q56.9458 695.501 55.0708 695.918 Q53.2189 696.334 51.2745 697.214 L51.2745 679.853 Z" fill="#000000" fill-rule="nonzero" fill-opacity="1" /><path clip-path="url(#clip800)" d="M60.6495 189.822 Q57.5013 189.822 55.6495 191.975 Q53.8208 194.128 53.8208 197.878 Q53.8208 201.605 55.6495 203.781 Q57.5013 205.933 60.6495 205.933 Q63.7976 205.933 65.6263 203.781 Q67.4781 201.605 67.4781 197.878 Q67.4781 194.128 65.6263 191.975 Q63.7976 189.822 60.6495 189.822 M69.9318 175.17 L69.9318 179.429 Q68.1726 178.596 66.367 178.156 Q64.5846 177.716 62.8254 177.716 Q58.1958 177.716 55.7421 180.841 Q53.3115 183.966 52.9643 190.285 Q54.33 188.271 56.3902 187.207 Q58.4504 186.119 60.9272 186.119 Q66.1355 186.119 69.1448 189.29 Q72.1772 192.438 72.1772 197.878 Q72.1772 203.202 69.029 206.419 Q65.8809 209.637 60.6495 209.637 Q54.6541 209.637 51.4828 205.054 Q48.3116 200.447 48.3116 191.721 Q48.3116 183.526 52.2004 178.665 Q56.0893 173.781 62.6402 173.781 Q64.3994 173.781 66.1818 174.128 Q67.9874 174.475 69.9318 175.17 Z" fill="#000000" fill-rule="nonzero" fill-opacity="1" /><path clip-path="url(#clip800)" d="M1003.78 17.6457 Q994.864 17.6457 989.598 24.2892 Q984.372 30.9327 984.372 42.3968 Q984.372 53.8203 989.598 60.4638 Q994.864 67.1073 1003.78 67.1073 Q1012.69 67.1073 1017.87 60.4638 Q1023.1 53.8203 1023.1 42.3968 Q1023.1 30.9327 1017.87 24.2892 Q1012.69 17.6457 1003.78 17.6457 M1003.78 11.0023 Q1016.5 11.0023 1024.11 19.5497 Q1031.73 28.0566 1031.73 42.3968 Q1031.73 56.6965 1024.11 65.2439 Q1016.5 73.7508 1003.78 73.7508 Q991.016 73.7508 983.36 65.2439 Q975.744 56.737 975.744 42.3968 Q975.744 28.0566 983.36 19.5497 Q991.016 11.0023 1003.78 11.0023 Z" fill="#000000" fill-rule="nonzero" fill-opacity="1" /><path clip-path="url(#clip800)" d="M1043.43 54.671 L1043.43 27.2059 L1050.89 27.2059 L1050.89 54.3874 Q1050.89 60.8284 1053.4 64.0691 Q1055.91 67.2693 1060.93 67.2693 Q1066.97 67.2693 1070.45 63.421 Q1073.98 59.5726 1073.98 52.9291 L1073.98 27.2059 L1081.43 27.2059 L1081.43 72.576 L1073.98 72.576 L1073.98 65.6084 Q1071.26 69.7404 1067.66 71.7658 Q1064.09 73.7508 1059.35 73.7508 Q1051.54 73.7508 1047.49 68.8897 Q1043.43 64.0286 1043.43 54.671 M1062.19 26.1121 L1062.19 26.1121 Z" fill="#000000" fill-rule="nonzero" fill-opacity="1" /><path clip-path="url(#clip800)" d="M1104.16 14.324 L1104.16 27.2059 L1119.51 27.2059 L1119.51 32.9987 L1104.16 32.9987 L1104.16 57.6282 Q1104.16 63.1779 1105.66 64.7578 Q1107.2 66.3376 1111.85 66.3376 L1119.51 66.3376 L1119.51 72.576 L1111.85 72.576 Q1103.23 72.576 1099.94 69.3758 Q1096.66 66.1351 1096.66 57.6282 L1096.66 32.9987 L1091.19 32.9987 L1091.19 27.2059 L1096.66 27.2059 L1096.66 14.324 L1104.16 14.324 Z" fill="#000000" fill-rule="nonzero" fill-opacity="1" /><path clip-path="url(#clip800)" d="M1136.52 65.7705 L1136.52 89.8329 L1129.03 89.8329 L1129.03 27.2059 L1136.52 27.2059 L1136.52 34.0924 Q1138.87 30.0415 1142.44 28.0971 Q1146.04 26.1121 1151.03 26.1121 Q1159.29 26.1121 1164.43 32.6746 Q1169.62 39.2371 1169.62 49.9314 Q1169.62 60.6258 1164.43 67.1883 Q1159.29 73.7508 1151.03 73.7508 Q1146.04 73.7508 1142.44 71.8063 Q1138.87 69.8214 1136.52 65.7705 M1161.88 49.9314 Q1161.88 41.7081 1158.48 37.0496 Q1155.12 32.3505 1149.2 32.3505 Q1143.29 32.3505 1139.89 37.0496 Q1136.52 41.7081 1136.52 49.9314 Q1136.52 58.1548 1139.89 62.8538 Q1143.29 67.5124 1149.2 67.5124 Q1155.12 67.5124 1158.48 62.8538 Q1161.88 58.1548 1161.88 49.9314 Z" fill="#000000" fill-rule="nonzero" fill-opacity="1" /><path clip-path="url(#clip800)" d="M1181.21 54.671 L1181.21 27.2059 L1188.66 27.2059 L1188.66 54.3874 Q1188.66 60.8284 1191.17 64.0691 Q1193.68 67.2693 1198.71 67.2693 Q1204.74 67.2693 1208.23 63.421 Q1211.75 59.5726 1211.75 52.9291 L1211.75 27.2059 L1219.2 27.2059 L1219.2 72.576 L1211.75 72.576 L1211.75 65.6084 Q1209.04 69.7404 1205.43 71.7658 Q1201.87 73.7508 1197.13 73.7508 Q1189.31 73.7508 1185.26 68.8897 Q1181.21 64.0286 1181.21 54.671 M1199.96 26.1121 L1199.96 26.1121 Z" fill="#000000" fill-rule="nonzero" fill-opacity="1" /><path clip-path="url(#clip800)" d="M1241.93 14.324 L1241.93 27.2059 L1257.28 27.2059 L1257.28 32.9987 L1241.93 32.9987 L1241.93 57.6282 Q1241.93 63.1779 1243.43 64.7578 Q1244.97 66.3376 1249.63 66.3376 L1257.28 66.3376 L1257.28 72.576 L1249.63 72.576 Q1241 72.576 1237.72 69.3758 Q1234.43 66.1351 1234.43 57.6282 L1234.43 32.9987 L1228.97 32.9987 L1228.97 27.2059 L1234.43 27.2059 L1234.43 14.324 L1241.93 14.324 Z" fill="#000000" fill-rule="nonzero" fill-opacity="1" /><path clip-path="url(#clip800)" d="M1314.08 49.7694 Q1305.04 49.7694 1301.56 51.8354 Q1298.07 53.9013 1298.07 58.8839 Q1298.07 62.8538 1300.67 65.2034 Q1303.3 67.5124 1307.8 67.5124 Q1313.99 67.5124 1317.72 63.1374 Q1321.49 58.7219 1321.49 51.4303 L1321.49 49.7694 L1314.08 49.7694 M1328.94 46.6907 L1328.94 72.576 L1321.49 72.576 L1321.49 65.6895 Q1318.94 69.8214 1315.13 71.8063 Q1311.32 73.7508 1305.81 73.7508 Q1298.84 73.7508 1294.71 69.8619 Q1290.62 65.9325 1290.62 59.3701 Q1290.62 51.7138 1295.72 47.825 Q1300.87 43.9361 1311.04 43.9361 L1321.49 43.9361 L1321.49 43.2069 Q1321.49 38.0623 1318.09 35.2672 Q1314.72 32.4315 1308.61 32.4315 Q1304.72 32.4315 1301.03 33.3632 Q1297.35 34.295 1293.94 36.1584 L1293.94 29.2718 Q1298.03 27.692 1301.88 26.9223 Q1305.73 26.1121 1309.38 26.1121 Q1319.22 26.1121 1324.08 31.2163 Q1328.94 36.3204 1328.94 46.6907 Z" fill="#000000" fill-rule="nonzero" fill-opacity="1" /><path clip-path="url(#clip800)" d="M1382.01 45.1919 L1382.01 72.576 L1374.56 72.576 L1374.56 45.4349 Q1374.56 38.994 1372.04 35.7938 Q1369.53 32.5936 1364.51 32.5936 Q1358.47 32.5936 1354.99 36.4419 Q1351.51 40.2903 1351.51 46.9338 L1351.51 72.576 L1344.01 72.576 L1344.01 27.2059 L1351.51 27.2059 L1351.51 34.2544 Q1354.18 30.163 1357.78 28.1376 Q1361.43 26.1121 1366.17 26.1121 Q1373.99 26.1121 1378 30.9732 Q1382.01 35.7938 1382.01 45.1919 Z" fill="#000000" fill-rule="nonzero" fill-opacity="1" /><path clip-path="url(#clip800)" d="M1426.73 34.0924 L1426.73 9.54393 L1434.18 9.54393 L1434.18 72.576 L1426.73 72.576 L1426.73 65.7705 Q1424.38 69.8214 1420.78 71.8063 Q1417.21 73.7508 1412.19 73.7508 Q1403.96 73.7508 1398.78 67.1883 Q1393.64 60.6258 1393.64 49.9314 Q1393.64 39.2371 1398.78 32.6746 Q1403.96 26.1121 1412.19 26.1121 Q1417.21 26.1121 1420.78 28.0971 Q1424.38 30.0415 1426.73 34.0924 M1401.33 49.9314 Q1401.33 58.1548 1404.69 62.8538 Q1408.1 67.5124 1414.01 67.5124 Q1419.93 67.5124 1423.33 62.8538 Q1426.73 58.1548 1426.73 49.9314 Q1426.73 41.7081 1423.33 37.0496 Q1419.93 32.3505 1414.01 32.3505 Q1408.1 32.3505 1404.69 37.0496 Q1401.33 41.7081 1401.33 49.9314 Z" fill="#000000" fill-rule="nonzero" fill-opacity="1" /><path clip-path="url(#clip800)" d="M1483.12 65.7705 L1483.12 89.8329 L1475.63 89.8329 L1475.63 27.2059 L1483.12 27.2059 L1483.12 34.0924 Q1485.47 30.0415 1489.03 28.0971 Q1492.64 26.1121 1497.62 26.1121 Q1505.89 26.1121 1511.03 32.6746 Q1516.22 39.2371 1516.22 49.9314 Q1516.22 60.6258 1511.03 67.1883 Q1505.89 73.7508 1497.62 73.7508 Q1492.64 73.7508 1489.03 71.8063 Q1485.47 69.8214 1483.12 65.7705 M1508.48 49.9314 Q1508.48 41.7081 1505.08 37.0496 Q1501.71 32.3505 1495.8 32.3505 Q1489.88 32.3505 1486.48 37.0496 Q1483.12 41.7081 1483.12 49.9314 Q1483.12 58.1548 1486.48 62.8538 Q1489.88 67.5124 1495.8 67.5124 Q1501.71 67.5124 1505.08 62.8538 Q1508.48 58.1548 1508.48 49.9314 Z" fill="#000000" fill-rule="nonzero" fill-opacity="1" /><path clip-path="url(#clip800)" d="M1554.86 34.1734 Q1553.61 33.4443 1552.11 33.1202 Q1550.65 32.7556 1548.87 32.7556 Q1542.55 32.7556 1539.14 36.8875 Q1535.78 40.9789 1535.78 48.6757 L1535.78 72.576 L1528.29 72.576 L1528.29 27.2059 L1535.78 27.2059 L1535.78 34.2544 Q1538.13 30.1225 1541.9 28.1376 Q1545.67 26.1121 1551.05 26.1121 Q1551.82 26.1121 1552.75 26.2337 Q1553.69 26.3147 1554.82 26.5172 L1554.86 34.1734 Z" fill="#000000" fill-rule="nonzero" fill-opacity="1" /><path clip-path="url(#clip800)" d="M1562.68 27.2059 L1570.13 27.2059 L1570.13 72.576 L1562.68 72.576 L1562.68 27.2059 M1562.68 9.54393 L1570.13 9.54393 L1570.13 18.9825 L1562.68 18.9825 L1562.68 9.54393 Z" fill="#000000" fill-rule="nonzero" fill-opacity="1" /><path clip-path="url(#clip800)" d="M1618.38 28.9478 L1618.38 35.9153 Q1615.22 34.1734 1612.02 33.3227 Q1608.86 32.4315 1605.62 32.4315 Q1598.37 32.4315 1594.36 37.0496 Q1590.35 41.6271 1590.35 49.9314 Q1590.35 58.2358 1594.36 62.8538 Q1598.37 67.4314 1605.62 67.4314 Q1608.86 67.4314 1612.02 66.5807 Q1615.22 65.6895 1618.38 63.9476 L1618.38 70.8341 Q1615.26 72.2924 1611.9 73.0216 Q1608.58 73.7508 1604.81 73.7508 Q1594.56 73.7508 1588.52 67.3098 Q1582.49 60.8689 1582.49 49.9314 Q1582.49 38.832 1588.56 32.472 Q1594.68 26.1121 1605.29 26.1121 Q1608.74 26.1121 1612.02 26.8413 Q1615.3 27.5299 1618.38 28.9478 Z" fill="#000000" fill-rule="nonzero" fill-opacity="1" /><path clip-path="url(#clip800)" d="M1670.15 48.0275 L1670.15 51.6733 L1635.88 51.6733 Q1636.37 59.3701 1640.5 63.421 Q1644.67 67.4314 1652.08 67.4314 Q1656.38 67.4314 1660.39 66.3781 Q1664.44 65.3249 1668.41 63.2184 L1668.41 70.267 Q1664.4 71.9684 1660.18 72.8596 Q1655.97 73.7508 1651.64 73.7508 Q1640.78 73.7508 1634.42 67.4314 Q1628.1 61.1119 1628.1 50.3365 Q1628.1 39.1965 1634.1 32.6746 Q1640.13 26.1121 1650.34 26.1121 Q1659.5 26.1121 1664.8 32.0264 Q1670.15 37.9003 1670.15 48.0275 M1662.7 45.84 Q1662.62 39.7232 1659.25 36.0774 Q1655.93 32.4315 1650.42 32.4315 Q1644.18 32.4315 1640.42 35.9558 Q1636.69 39.4801 1636.12 45.8805 L1662.7 45.84 Z" fill="#000000" fill-rule="nonzero" fill-opacity="1" /><path clip-path="url(#clip800)" d="M1711.31 28.5427 L1711.31 35.5912 Q1708.15 33.9709 1704.74 33.1607 Q1701.34 32.3505 1697.7 32.3505 Q1692.15 32.3505 1689.35 34.0519 Q1686.6 35.7533 1686.6 39.156 Q1686.6 41.7486 1688.58 43.2475 Q1690.57 44.7058 1696.56 46.0426 L1699.11 46.6097 Q1707.05 48.3111 1710.38 51.4303 Q1713.74 54.509 1713.74 60.0587 Q1713.74 66.3781 1708.71 70.0644 Q1703.73 73.7508 1694.98 73.7508 Q1691.34 73.7508 1687.37 73.0216 Q1683.44 72.3329 1679.06 70.9151 L1679.06 63.2184 Q1683.19 65.3654 1687.2 66.4591 Q1691.21 67.5124 1695.14 67.5124 Q1700.41 67.5124 1703.25 65.73 Q1706.08 63.9071 1706.08 60.6258 Q1706.08 57.5877 1704.02 55.9673 Q1701.99 54.3469 1695.06 52.8481 L1692.47 52.2405 Q1685.54 50.7821 1682.46 47.7845 Q1679.39 44.7463 1679.39 39.4801 Q1679.39 33.0797 1683.92 29.5959 Q1688.46 26.1121 1696.8 26.1121 Q1700.94 26.1121 1704.58 26.7198 Q1708.23 27.3274 1711.31 28.5427 Z" fill="#000000" fill-rule="nonzero" fill-opacity="1" /><path clip-path="url(#clip800)" d="M1727.51 62.2867 L1736.06 62.2867 L1736.06 69.2543 L1729.41 82.2172 L1724.19 82.2172 L1727.51 69.2543 L1727.51 62.2867 Z" fill="#000000" fill-rule="nonzero" fill-opacity="1" /><path clip-path="url(#clip800)" d="M1808.2 34.0924 L1808.2 9.54393 L1815.66 9.54393 L1815.66 72.576 L1808.2 72.576 L1808.2 65.7705 Q1805.86 69.8214 1802.25 71.8063 Q1798.69 73.7508 1793.66 73.7508 Q1785.44 73.7508 1780.25 67.1883 Q1775.11 60.6258 1775.11 49.9314 Q1775.11 39.2371 1780.25 32.6746 Q1785.44 26.1121 1793.66 26.1121 Q1798.69 26.1121 1802.25 28.0971 Q1805.86 30.0415 1808.2 34.0924 M1782.81 49.9314 Q1782.81 58.1548 1786.17 62.8538 Q1789.57 67.5124 1795.48 67.5124 Q1801.4 67.5124 1804.8 62.8538 Q1808.2 58.1548 1808.2 49.9314 Q1808.2 41.7081 1804.8 37.0496 Q1801.4 32.3505 1795.48 32.3505 Q1789.57 32.3505 1786.17 37.0496 Q1782.81 41.7081 1782.81 49.9314 Z" fill="#000000" fill-rule="nonzero" fill-opacity="1" /><path clip-path="url(#clip800)" d="M1830.24 54.671 L1830.24 27.2059 L1837.7 27.2059 L1837.7 54.3874 Q1837.7 60.8284 1840.21 64.0691 Q1842.72 67.2693 1847.74 67.2693 Q1853.78 67.2693 1857.26 63.421 Q1860.79 59.5726 1860.79 52.9291 L1860.79 27.2059 L1868.24 27.2059 L1868.24 72.576 L1860.79 72.576 L1860.79 65.6084 Q1858.07 69.7404 1854.47 71.7658 Q1850.9 73.7508 1846.16 73.7508 Q1838.34 73.7508 1834.29 68.8897 Q1830.24 64.0286 1830.24 54.671 M1849 26.1121 L1849 26.1121 Z" fill="#000000" fill-rule="nonzero" fill-opacity="1" /><path clip-path="url(#clip800)" d="M1901.17 32.4315 Q1895.18 32.4315 1891.69 37.1306 Q1888.21 41.7891 1888.21 49.9314 Q1888.21 58.0738 1891.65 62.7728 Q1895.14 67.4314 1901.17 67.4314 Q1907.13 67.4314 1910.61 62.7323 Q1914.1 58.0333 1914.1 49.9314 Q1914.1 41.8701 1910.61 37.1711 Q1907.13 32.4315 1901.17 32.4315 M1901.17 26.1121 Q1910.9 26.1121 1916.44 32.4315 Q1921.99 38.7509 1921.99 49.9314 Q1921.99 61.0714 1916.44 67.4314 Q1910.9 73.7508 1901.17 73.7508 Q1891.41 73.7508 1885.86 67.4314 Q1880.35 61.0714 1880.35 49.9314 Q1880.35 38.7509 1885.86 32.4315 Q1891.41 26.1121 1901.17 26.1121 Z" fill="#000000" fill-rule="nonzero" fill-opacity="1" /><path clip-path="url(#clip800)" d="M1941.56 65.7705 L1941.56 89.8329 L1934.07 89.8329 L1934.07 27.2059 L1941.56 27.2059 L1941.56 34.0924 Q1943.91 30.0415 1947.47 28.0971 Q1951.08 26.1121 1956.06 26.1121 Q1964.33 26.1121 1969.47 32.6746 Q1974.66 39.2371 1974.66 49.9314 Q1974.66 60.6258 1969.47 67.1883 Q1964.33 73.7508 1956.06 73.7508 Q1951.08 73.7508 1947.47 71.8063 Q1943.91 69.8214 1941.56 65.7705 M1966.92 49.9314 Q1966.92 41.7081 1963.52 37.0496 Q1960.15 32.3505 1954.24 32.3505 Q1948.33 32.3505 1944.92 37.0496 Q1941.56 41.7081 1941.56 49.9314 Q1941.56 58.1548 1944.92 62.8538 Q1948.33 67.5124 1954.24 67.5124 Q1960.15 67.5124 1963.52 62.8538 Q1966.92 58.1548 1966.92 49.9314 Z" fill="#000000" fill-rule="nonzero" fill-opacity="1" /><path clip-path="url(#clip800)" d="M2004.59 32.4315 Q1998.6 32.4315 1995.11 37.1306 Q1991.63 41.7891 1991.63 49.9314 Q1991.63 58.0738 1995.07 62.7728 Q1998.56 67.4314 2004.59 67.4314 Q2010.55 67.4314 2014.03 62.7323 Q2017.51 58.0333 2017.51 49.9314 Q2017.51 41.8701 2014.03 37.1711 Q2010.55 32.4315 2004.59 32.4315 M2004.59 26.1121 Q2014.31 26.1121 2019.86 32.4315 Q2025.41 38.7509 2025.41 49.9314 Q2025.41 61.0714 2019.86 67.4314 Q2014.31 73.7508 2004.59 73.7508 Q1994.83 73.7508 1989.28 67.4314 Q1983.77 61.0714 1983.77 49.9314 Q1983.77 38.7509 1989.28 32.4315 Q1994.83 26.1121 2004.59 26.1121 Z" fill="#000000" fill-rule="nonzero" fill-opacity="1" /><path clip-path="url(#clip800)" d="M2037.77 9.54393 L2045.22 9.54393 L2045.22 72.576 L2037.77 72.576 L2037.77 9.54393 Z" fill="#000000" fill-rule="nonzero" fill-opacity="1" /><path clip-path="url(#clip800)" d="M2079.7 76.7889 Q2076.54 84.8907 2073.54 87.3618 Q2070.54 89.8329 2065.52 89.8329 L2059.56 89.8329 L2059.56 83.5945 L2063.94 83.5945 Q2067.02 83.5945 2068.72 82.1361 Q2070.42 80.6778 2072.49 75.2496 L2073.82 71.8468 L2055.47 27.2059 L2063.37 27.2059 L2077.55 62.6918 L2091.73 27.2059 L2099.63 27.2059 L2079.7 76.7889 Z" fill="#000000" fill-rule="nonzero" fill-opacity="1" /><path clip-path="url(#clip800)" d="M2136.61 12.096 L2148.8 12.096 L2164.24 53.2532 L2179.75 12.096 L2191.95 12.096 L2191.95 72.576 L2183.97 72.576 L2183.97 19.4686 L2168.37 60.9499 L2160.15 60.9499 L2144.55 19.4686 L2144.55 72.576 L2136.61 72.576 L2136.61 12.096 Z" fill="#000000" fill-rule="nonzero" fill-opacity="1" /><path clip-path="url(#clip800)" d="M2216.37 18.8205 L2216.37 41.5461 L2226.66 41.5461 Q2232.37 41.5461 2235.49 38.5889 Q2238.61 35.6318 2238.61 30.163 Q2238.61 24.7348 2235.49 21.7777 Q2232.37 18.8205 2226.66 18.8205 L2216.37 18.8205 M2208.19 12.096 L2226.66 12.096 Q2236.83 12.096 2242.02 16.714 Q2247.24 21.2916 2247.24 30.163 Q2247.24 39.1155 2242.02 43.6931 Q2236.83 48.2706 2226.66 48.2706 L2216.37 48.2706 L2216.37 72.576 L2208.19 72.576 L2208.19 12.096 Z" fill="#000000" fill-rule="nonzero" fill-opacity="1" /><path clip-path="url(#clip800)" d="M2258.22 12.096 L2296.46 12.096 L2296.46 18.9825 L2266.4 18.9825 L2266.4 36.8875 L2295.2 36.8875 L2295.2 43.7741 L2266.4 43.7741 L2266.4 65.6895 L2297.19 65.6895 L2297.19 72.576 L2258.22 72.576 L2258.22 12.096 Z" fill="#000000" fill-rule="nonzero" fill-opacity="1" /><polyline clip-path="url(#clip802)" style="stroke:#0000ff; stroke-linecap:round; stroke-linejoin:round; stroke-width:8; stroke-opacity:0.75; fill:none" points="206.005,2213.47 356.58,1912.74 507.155,1723.57 657.73,1604.57 808.305,1529.72 958.879,1482.64 1109.45,1453.02 1260.03,1434.39 1410.6,1422.67 1561.18,1415.3 1711.75,1410.67 1862.33,1407.75 2012.9,1405.91 2163.48,1404.76 2314.05,1404.03 2464.63,1403.58 2615.2,1403.29 2765.78,1403.11 2916.35,1403 3066.93,1402.92 "/>
<polyline clip-path="url(#clip802)" style="stroke:#008000; stroke-linecap:round; stroke-linejoin:round; stroke-width:8; stroke-opacity:0.75; fill:none" points="206.005,191.686 356.58,793.157 507.155,1171.5 657.73,1409.49 808.305,1559.19 958.879,1653.36 1109.45,1712.59 1260.03,1749.85 1410.6,1773.29 1561.18,1788.03 1711.75,1797.3 1862.33,1803.14 2012.9,1806.8 2163.48,1809.11 2314.05,1810.56 2464.63,1811.48 2615.2,1812.05 2765.78,1812.41 2916.35,1812.64 3066.93,1812.78 "/>
<path clip-path="url(#clip800)" d="M2470.98 357.989 L3051.67 357.989 L3051.67 202.469 L2470.98 202.469  Z" fill="#ffffff" fill-rule="evenodd" fill-opacity="1"/>
<polyline clip-path="url(#clip800)" style="stroke:#000000; stroke-linecap:round; stroke-linejoin:round; stroke-width:4; stroke-opacity:1; fill:none" points="2470.98,357.989 3051.67,357.989 3051.67,202.469 2470.98,202.469 2470.98,357.989 "/>
<polyline clip-path="url(#clip800)" style="stroke:#0000ff; stroke-linecap:round; stroke-linejoin:round; stroke-width:8; stroke-opacity:0.75; fill:none" points="2504.68,254.309 2706.85,254.309 "/>
<path clip-path="url(#clip800)" d="M2747.95 238.302 L2747.95 245.663 L2756.73 245.663 L2756.73 248.973 L2747.95 248.973 L2747.95 263.047 Q2747.95 266.218 2748.81 267.121 Q2749.69 268.024 2752.35 268.024 L2756.73 268.024 L2756.73 271.589 L2752.35 271.589 Q2747.42 271.589 2745.55 269.76 Q2743.67 267.908 2743.67 263.047 L2743.67 248.973 L2740.55 248.973 L2740.55 245.663 L2743.67 245.663 L2743.67 238.302 L2747.95 238.302 Z" fill="#000000" fill-rule="nonzero" fill-opacity="1" /><path clip-path="url(#clip800)" d="M2772.37 248.649 Q2768.95 248.649 2766.96 251.334 Q2764.97 253.996 2764.97 258.649 Q2764.97 263.302 2766.93 265.987 Q2768.93 268.649 2772.37 268.649 Q2775.78 268.649 2777.77 265.964 Q2779.76 263.279 2779.76 258.649 Q2779.76 254.042 2777.77 251.357 Q2775.78 248.649 2772.37 248.649 M2772.37 245.038 Q2777.93 245.038 2781.1 248.649 Q2784.27 252.26 2784.27 258.649 Q2784.27 265.015 2781.1 268.649 Q2777.93 272.26 2772.37 272.26 Q2766.8 272.26 2763.62 268.649 Q2760.48 265.015 2760.48 258.649 Q2760.48 252.26 2763.62 248.649 Q2766.8 245.038 2772.37 245.038 Z" fill="#000000" fill-rule="nonzero" fill-opacity="1" /><path clip-path="url(#clip800)" d="M2795.55 238.302 L2795.55 245.663 L2804.32 245.663 L2804.32 248.973 L2795.55 248.973 L2795.55 263.047 Q2795.55 266.218 2796.4 267.121 Q2797.28 268.024 2799.94 268.024 L2804.32 268.024 L2804.32 271.589 L2799.94 271.589 Q2795.01 271.589 2793.14 269.76 Q2791.26 267.908 2791.26 263.047 L2791.26 248.973 L2788.14 248.973 L2788.14 245.663 L2791.26 245.663 L2791.26 238.302 L2795.55 238.302 Z" fill="#000000" fill-rule="nonzero" fill-opacity="1" /><path clip-path="url(#clip800)" d="M2821.7 258.556 Q2816.54 258.556 2814.55 259.737 Q2812.56 260.917 2812.56 263.765 Q2812.56 266.033 2814.04 267.376 Q2815.55 268.695 2818.11 268.695 Q2821.66 268.695 2823.79 266.195 Q2825.94 263.672 2825.94 259.505 L2825.94 258.556 L2821.7 258.556 M2830.2 256.797 L2830.2 271.589 L2825.94 271.589 L2825.94 267.653 Q2824.48 270.015 2822.3 271.149 Q2820.13 272.26 2816.98 272.26 Q2813 272.26 2810.64 270.038 Q2808.3 267.792 2808.3 264.042 Q2808.3 259.667 2811.22 257.445 Q2814.16 255.223 2819.97 255.223 L2825.94 255.223 L2825.94 254.806 Q2825.94 251.867 2823.99 250.269 Q2822.07 248.649 2818.58 248.649 Q2816.36 248.649 2814.25 249.181 Q2812.14 249.714 2810.2 250.779 L2810.2 246.843 Q2812.54 245.941 2814.73 245.501 Q2816.93 245.038 2819.02 245.038 Q2824.64 245.038 2827.42 247.955 Q2830.2 250.871 2830.2 256.797 Z" fill="#000000" fill-rule="nonzero" fill-opacity="1" /><path clip-path="url(#clip800)" d="M2838.97 235.57 L2843.23 235.57 L2843.23 271.589 L2838.97 271.589 L2838.97 235.57 Z" fill="#000000" fill-rule="nonzero" fill-opacity="1" /><path clip-path="url(#clip800)" d="M2877.26 248.649 Q2873.83 248.649 2871.84 251.334 Q2869.85 253.996 2869.85 258.649 Q2869.85 263.302 2871.82 265.987 Q2873.81 268.649 2877.26 268.649 Q2880.66 268.649 2882.65 265.964 Q2884.64 263.279 2884.64 258.649 Q2884.64 254.042 2882.65 251.357 Q2880.66 248.649 2877.26 248.649 M2877.26 245.038 Q2882.81 245.038 2885.98 248.649 Q2889.16 252.26 2889.16 258.649 Q2889.16 265.015 2885.98 268.649 Q2882.81 272.26 2877.26 272.26 Q2871.68 272.26 2868.51 268.649 Q2865.36 265.015 2865.36 258.649 Q2865.36 252.26 2868.51 248.649 Q2871.68 245.038 2877.26 245.038 Z" fill="#000000" fill-rule="nonzero" fill-opacity="1" /><path clip-path="url(#clip800)" d="M2895.78 261.357 L2895.78 245.663 L2900.04 245.663 L2900.04 261.195 Q2900.04 264.876 2901.47 266.728 Q2902.91 268.556 2905.78 268.556 Q2909.23 268.556 2911.22 266.357 Q2913.23 264.158 2913.23 260.362 L2913.23 245.663 L2917.49 245.663 L2917.49 271.589 L2913.23 271.589 L2913.23 267.607 Q2911.68 269.968 2909.62 271.126 Q2907.58 272.26 2904.87 272.26 Q2900.41 272.26 2898.09 269.482 Q2895.78 266.704 2895.78 261.357 M2906.49 245.038 L2906.49 245.038 Z" fill="#000000" fill-rule="nonzero" fill-opacity="1" /><path clip-path="url(#clip800)" d="M2930.48 238.302 L2930.48 245.663 L2939.25 245.663 L2939.25 248.973 L2930.48 248.973 L2930.48 263.047 Q2930.48 266.218 2931.33 267.121 Q2932.21 268.024 2934.87 268.024 L2939.25 268.024 L2939.25 271.589 L2934.87 271.589 Q2929.94 271.589 2928.07 269.76 Q2926.19 267.908 2926.19 263.047 L2926.19 248.973 L2923.07 248.973 L2923.07 245.663 L2926.19 245.663 L2926.19 238.302 L2930.48 238.302 Z" fill="#000000" fill-rule="nonzero" fill-opacity="1" /><path clip-path="url(#clip800)" d="M2948.97 267.7 L2948.97 281.45 L2944.69 281.45 L2944.69 245.663 L2948.97 245.663 L2948.97 249.598 Q2950.31 247.283 2952.35 246.172 Q2954.41 245.038 2957.26 245.038 Q2961.98 245.038 2964.92 248.788 Q2967.88 252.538 2967.88 258.649 Q2967.88 264.76 2964.92 268.51 Q2961.98 272.26 2957.26 272.26 Q2954.41 272.26 2952.35 271.149 Q2950.31 270.015 2948.97 267.7 M2963.46 258.649 Q2963.46 253.95 2961.52 251.288 Q2959.6 248.603 2956.22 248.603 Q2952.84 248.603 2950.89 251.288 Q2948.97 253.95 2948.97 258.649 Q2948.97 263.348 2950.89 266.033 Q2952.84 268.695 2956.22 268.695 Q2959.6 268.695 2961.52 266.033 Q2963.46 263.348 2963.46 258.649 Z" fill="#000000" fill-rule="nonzero" fill-opacity="1" /><path clip-path="url(#clip800)" d="M2974.5 261.357 L2974.5 245.663 L2978.76 245.663 L2978.76 261.195 Q2978.76 264.876 2980.2 266.728 Q2981.63 268.556 2984.5 268.556 Q2987.95 268.556 2989.94 266.357 Q2991.96 264.158 2991.96 260.362 L2991.96 245.663 L2996.22 245.663 L2996.22 271.589 L2991.96 271.589 L2991.96 267.607 Q2990.41 269.968 2988.35 271.126 Q2986.31 272.26 2983.6 272.26 Q2979.13 272.26 2976.82 269.482 Q2974.5 266.704 2974.5 261.357 M2985.22 245.038 L2985.22 245.038 Z" fill="#000000" fill-rule="nonzero" fill-opacity="1" /><path clip-path="url(#clip800)" d="M3009.2 238.302 L3009.2 245.663 L3017.97 245.663 L3017.97 248.973 L3009.2 248.973 L3009.2 263.047 Q3009.2 266.218 3010.06 267.121 Q3010.94 268.024 3013.6 268.024 L3017.97 268.024 L3017.97 271.589 L3013.6 271.589 Q3008.67 271.589 3006.79 269.76 Q3004.92 267.908 3004.92 263.047 L3004.92 248.973 L3001.79 248.973 L3001.79 245.663 L3004.92 245.663 L3004.92 238.302 L3009.2 238.302 Z" fill="#000000" fill-rule="nonzero" fill-opacity="1" /><polyline clip-path="url(#clip800)" style="stroke:#008000; stroke-linecap:round; stroke-linejoin:round; stroke-width:8; stroke-opacity:0.75; fill:none" points="2504.68,306.149 2706.85,306.149 "/>
<path clip-path="url(#clip800)" d="M2744.83 319.54 L2744.83 333.29 L2740.55 333.29 L2740.55 297.503 L2744.83 297.503 L2744.83 301.438 Q2746.17 299.123 2748.21 298.012 Q2750.27 296.878 2753.11 296.878 Q2757.84 296.878 2760.78 300.628 Q2763.74 304.378 2763.74 310.489 Q2763.74 316.6 2760.78 320.35 Q2757.84 324.1 2753.11 324.1 Q2750.27 324.1 2748.21 322.989 Q2746.17 321.855 2744.83 319.54 M2759.32 310.489 Q2759.32 305.79 2757.37 303.128 Q2755.45 300.443 2752.07 300.443 Q2748.69 300.443 2746.75 303.128 Q2744.83 305.79 2744.83 310.489 Q2744.83 315.188 2746.75 317.873 Q2748.69 320.535 2752.07 320.535 Q2755.45 320.535 2757.37 317.873 Q2759.32 315.188 2759.32 310.489 Z" fill="#000000" fill-rule="nonzero" fill-opacity="1" /><path clip-path="url(#clip800)" d="M2785.82 301.484 Q2785.11 301.068 2784.25 300.882 Q2783.42 300.674 2782.4 300.674 Q2778.79 300.674 2776.84 303.035 Q2774.92 305.373 2774.92 309.771 L2774.92 323.429 L2770.64 323.429 L2770.64 297.503 L2774.92 297.503 L2774.92 301.531 Q2776.26 299.17 2778.42 298.035 Q2780.57 296.878 2783.65 296.878 Q2784.09 296.878 2784.62 296.947 Q2785.15 296.994 2785.8 297.109 L2785.82 301.484 Z" fill="#000000" fill-rule="nonzero" fill-opacity="1" /><path clip-path="url(#clip800)" d="M2790.29 297.503 L2794.55 297.503 L2794.55 323.429 L2790.29 323.429 L2790.29 297.503 M2790.29 287.41 L2794.55 287.41 L2794.55 292.804 L2790.29 292.804 L2790.29 287.41 Z" fill="#000000" fill-rule="nonzero" fill-opacity="1" /><path clip-path="url(#clip800)" d="M2822.12 298.498 L2822.12 302.48 Q2820.31 301.484 2818.48 300.998 Q2816.68 300.489 2814.83 300.489 Q2810.68 300.489 2808.39 303.128 Q2806.1 305.744 2806.1 310.489 Q2806.1 315.234 2808.39 317.873 Q2810.68 320.489 2814.83 320.489 Q2816.68 320.489 2818.48 320.003 Q2820.31 319.493 2822.12 318.498 L2822.12 322.433 Q2820.34 323.267 2818.42 323.683 Q2816.52 324.1 2814.36 324.1 Q2808.51 324.1 2805.06 320.419 Q2801.61 316.739 2801.61 310.489 Q2801.61 304.146 2805.08 300.512 Q2808.58 296.878 2814.64 296.878 Q2816.61 296.878 2818.48 297.295 Q2820.36 297.688 2822.12 298.498 Z" fill="#000000" fill-rule="nonzero" fill-opacity="1" /><path clip-path="url(#clip800)" d="M2851.7 309.401 L2851.7 311.484 L2832.12 311.484 Q2832.4 315.882 2834.76 318.197 Q2837.14 320.489 2841.38 320.489 Q2843.83 320.489 2846.12 319.887 Q2848.44 319.285 2850.71 318.081 L2850.71 322.109 Q2848.42 323.081 2846.01 323.591 Q2843.6 324.1 2841.12 324.1 Q2834.92 324.1 2831.29 320.489 Q2827.67 316.878 2827.67 310.72 Q2827.67 304.355 2831.1 300.628 Q2834.55 296.878 2840.38 296.878 Q2845.61 296.878 2848.65 300.257 Q2851.7 303.614 2851.7 309.401 M2847.44 308.151 Q2847.4 304.656 2845.48 302.572 Q2843.58 300.489 2840.43 300.489 Q2836.86 300.489 2834.71 302.503 Q2832.58 304.517 2832.26 308.174 L2847.44 308.151 Z" fill="#000000" fill-rule="nonzero" fill-opacity="1" /></svg>
