<svg xmlns="http://www.w3.org/2000/svg" viewBox="0 0 960 445" font-family="'Segoe UI', 'Helvetica Neue', Arial, sans-serif" role="img"><title>Fewer edges or lower cost?</title><defs><filter id="shadow" x="-4%" y="-4%" width="108%" height="108%"><feDropShadow dx="1" dy="2" stdDeviation="3" flood-opacity="0.12"/></filter><marker id="arr-blue" viewBox="0 0 10 10" refX="9" refY="5" markerWidth="5" markerHeight="5" orient="auto-start-reverse"><path d="M 0 0 L 10 5 L 0 10 z" fill="#3B82F6"/></marker><marker id="arr-amber" viewBox="0 0 10 10" refX="9" refY="5" markerWidth="5" markerHeight="5" orient="auto-start-reverse"><path d="M 0 0 L 10 5 L 0 10 z" fill="#F59E0B"/></marker><marker id="arr-gray" viewBox="0 0 10 10" refX="9" refY="5" markerWidth="5" markerHeight="5" orient="auto-start-reverse"><path d="M 0 0 L 10 5 L 0 10 z" fill="#94A3B8"/></marker></defs><rect width="960" height="445" rx="12" fill="#FFFFFF"/><text x="480.0" y="32" font-size="20" fill="#1E293B" text-anchor="middle" font-weight="700">Fewer edges or lower cost?</text><g filter="url(#shadow)"><rect x="20" y="55" width="440" height="365" rx="12" fill="#EFF6FF" stroke="#E2E8F0"/></g><text x="240" y="84" font-size="15" fill="#1E40AF" text-anchor="middle" font-weight="600">Fewest edges</text><g filter="url(#shadow)"><rect x="500" y="55" width="440" height="365" rx="12" fill="#EFF6FF" stroke="#E2E8F0"/></g><text x="720" y="84" font-size="15" fill="#1E40AF" text-anchor="middle" font-weight="600">Lowest cost</text><g transform="translate(54,103)"><line x1="42.238579169872814" y1="99.69382806747552" x2="110.46668723577604" y2="42.238579169872814" stroke="#94A3B8" stroke-width="1.5" marker-end="url(#arr-gray)"/><rect x="68.5" y="50.0" width="18" height="17" rx="3" fill="#FFFFFF" stroke="#FFFFFF"/><text x="77.5" y="62.0" font-size="11" fill="#475569" text-anchor="middle" font-weight="600">1</text><line x1="42.238579169872814" y1="120.30617193252448" x2="110.46668723577604" y2="177.76142083012718" stroke="#94A3B8" stroke-width="1.5" marker-end="url(#arr-gray)"/><rect x="68.5" y="130.0" width="18" height="17" rx="3" fill="#FFFFFF" stroke="#FFFFFF"/><text x="77.5" y="142.0" font-size="11" fill="#475569" text-anchor="middle" font-weight="600">5</text><line x1="46.0" y1="110.0" x2="106.0" y2="110.0" stroke="#3B82F6" stroke-width="3" marker-end="url(#arr-blue)"/><rect x="68.5" y="90.0" width="18" height="17" rx="3" fill="#FFFFFF" stroke="#FFFFFF"/><text x="77.5" y="102.0" font-size="11" fill="#1E40AF" text-anchor="middle" font-weight="600">3</text><line x1="125.0" y1="46.0" x2="125.0" y2="91.0" stroke="#94A3B8" stroke-width="1.5" marker-end="url(#arr-gray)"/><rect x="103.0" y="58.0" width="18" height="17" rx="3" fill="#FFFFFF" stroke="#FFFFFF"/><text x="112.0" y="70.0" font-size="11" fill="#475569" text-anchor="middle" font-weight="600">9</text><line x1="141.0" y1="30.0" x2="216.0" y2="30.0" stroke="#94A3B8" stroke-width="1.5" marker-end="url(#arr-gray)"/><rect x="171.0" y="10.0" width="18" height="17" rx="3" fill="#FFFFFF" stroke="#FFFFFF"/><text x="180.0" y="22.0" font-size="11" fill="#475569" text-anchor="middle" font-weight="600">6</text><line x1="140.8532826887088" y1="187.83818872426698" x2="216.17422680715833" y2="177.56715088993295" stroke="#94A3B8" stroke-width="1.5" marker-end="url(#arr-gray)"/><rect x="171.0" y="162.5" width="18" height="17" rx="3" fill="#FFFFFF" stroke="#FFFFFF"/><text x="180.0" y="174.5" font-size="11" fill="#475569" text-anchor="middle" font-weight="600">2</text><line x1="138.77482445142905" y1="118.13966899402625" x2="218.642395963928" y2="165.33414306959384" stroke="#94A3B8" stroke-width="1.5" marker-end="url(#arr-gray)"/><rect x="171.0" y="122.5" width="18" height="17" rx="3" fill="#FFFFFF" stroke="#FFFFFF"/><text x="180.0" y="134.5" font-size="11" fill="#475569" text-anchor="middle" font-weight="600">4</text><line x1="141.0" y1="110.0" x2="316.0" y2="110.0" stroke="#3B82F6" stroke-width="3" marker-end="url(#arr-blue)"/><rect x="221.0" y="90.0" width="18" height="17" rx="3" fill="#FFFFFF" stroke="#FFFFFF"/><text x="230.0" y="102.0" font-size="11" fill="#1E40AF" text-anchor="middle" font-weight="600">8</text><line x1="247.49390095108848" y1="39.99512076087079" x2="320.1634926205824" y2="98.13079409646593" stroke="#94A3B8" stroke-width="1.5" marker-end="url(#arr-gray)"/><rect x="276.0" y="50.0" width="18" height="17" rx="3" fill="#FFFFFF" stroke="#FFFFFF"/><text x="285.0" y="62.0" font-size="11" fill="#475569" text-anchor="middle" font-weight="600">4</text><line x1="248.4150978608102" y1="166.28018639047338" x2="319.0695712902879" y2="120.35477866131286" stroke="#94A3B8" stroke-width="1.5" marker-end="url(#arr-gray)"/><rect x="276.0" y="122.5" width="18" height="17" rx="3" fill="#FFFFFF" stroke="#FFFFFF"/><text x="285.0" y="134.5" font-size="11" fill="#475569" text-anchor="middle" font-weight="600">1</text><circle cx="30" cy="110" r="16" fill="#EFF6FF" stroke="#3B82F6" stroke-width="1.5"/><text x="30" y="114" font-size="12" fill="#1E40AF" text-anchor="middle" font-weight="600">A</text><circle cx="125" cy="30" r="16" fill="#EFF6FF" stroke="#3B82F6" stroke-width="1.5"/><text x="125" y="34" font-size="12" fill="#1E40AF" text-anchor="middle" font-weight="600">B</text><circle cx="125" cy="190" r="16" fill="#EFF6FF" stroke="#3B82F6" stroke-width="1.5"/><text x="125" y="194" font-size="12" fill="#1E40AF" text-anchor="middle" font-weight="600">C</text><circle cx="125" cy="110" r="16" fill="#EFF6FF" stroke="#3B82F6" stroke-width="1.5"/><text x="125" y="114" font-size="12" fill="#1E40AF" text-anchor="middle" font-weight="600">D</text><circle cx="235" cy="30" r="16" fill="#EFF6FF" stroke="#3B82F6" stroke-width="1.5"/><text x="235" y="34" font-size="12" fill="#1E40AF" text-anchor="middle" font-weight="600">E</text><circle cx="235" cy="175" r="16" fill="#EFF6FF" stroke="#3B82F6" stroke-width="1.5"/><text x="235" y="179" font-size="12" fill="#1E40AF" text-anchor="middle" font-weight="600">F</text><circle cx="335" cy="110" r="16" fill="#EFF6FF" stroke="#3B82F6" stroke-width="1.5"/><text x="335" y="114" font-size="12" fill="#1E40AF" text-anchor="middle" font-weight="600">G</text></g><g transform="translate(534,103)"><line x1="42.238579169872814" y1="99.69382806747552" x2="110.46668723577604" y2="42.238579169872814" stroke="#94A3B8" stroke-width="1.5" marker-end="url(#arr-gray)"/><rect x="68.5" y="50.0" width="18" height="17" rx="3" fill="#FFFFFF" stroke="#FFFFFF"/><text x="77.5" y="62.0" font-size="11" fill="#475569" text-anchor="middle" font-weight="600">1</text><line x1="42.238579169872814" y1="120.30617193252448" x2="110.46668723577604" y2="177.76142083012718" stroke="#3B82F6" stroke-width="3" marker-end="url(#arr-blue)"/><rect x="68.5" y="130.0" width="18" height="17" rx="3" fill="#FFFFFF" stroke="#FFFFFF"/><text x="77.5" y="142.0" font-size="11" fill="#1E40AF" text-anchor="middle" font-weight="600">5</text><line x1="46.0" y1="110.0" x2="106.0" y2="110.0" stroke="#3B82F6" stroke-width="3" marker-end="url(#arr-blue)"/><rect x="68.5" y="90.0" width="18" height="17" rx="3" fill="#FFFFFF" stroke="#FFFFFF"/><text x="77.5" y="102.0" font-size="11" fill="#1E40AF" text-anchor="middle" font-weight="600">3</text><line x1="125.0" y1="46.0" x2="125.0" y2="91.0" stroke="#94A3B8" stroke-width="1.5" marker-end="url(#arr-gray)"/><rect x="103.0" y="58.0" width="18" height="17" rx="3" fill="#FFFFFF" stroke="#FFFFFF"/><text x="112.0" y="70.0" font-size="11" fill="#475569" text-anchor="middle" font-weight="600">9</text><line x1="141.0" y1="30.0" x2="216.0" y2="30.0" stroke="#94A3B8" stroke-width="1.5" marker-end="url(#arr-gray)"/><rect x="171.0" y="10.0" width="18" height="17" rx="3" fill="#FFFFFF" stroke="#FFFFFF"/><text x="180.0" y="22.0" font-size="11" fill="#475569" text-anchor="middle" font-weight="600">6</text><line x1="140.8532826887088" y1="187.83818872426698" x2="216.17422680715833" y2="177.56715088993295" stroke="#3B82F6" stroke-width="3" marker-end="url(#arr-blue)"/><rect x="171.0" y="162.5" width="18" height="17" rx="3" fill="#FFFFFF" stroke="#FFFFFF"/><text x="180.0" y="174.5" font-size="11" fill="#1E40AF" text-anchor="middle" font-weight="600">2</text><line x1="138.77482445142905" y1="118.13966899402625" x2="218.642395963928" y2="165.33414306959384" stroke="#3B82F6" stroke-width="3" marker-end="url(#arr-blue)"/><rect x="171.0" y="122.5" width="18" height="17" rx="3" fill="#FFFFFF" stroke="#FFFFFF"/><text x="180.0" y="134.5" font-size="11" fill="#1E40AF" text-anchor="middle" font-weight="600">4</text><line x1="141.0" y1="110.0" x2="316.0" y2="110.0" stroke="#94A3B8" stroke-width="1.5" marker-end="url(#arr-gray)"/><rect x="221.0" y="90.0" width="18" height="17" rx="3" fill="#FFFFFF" stroke="#FFFFFF"/><text x="230.0" y="102.0" font-size="11" fill="#475569" text-anchor="middle" font-weight="600">8</text><line x1="247.49390095108848" y1="39.99512076087079" x2="320.1634926205824" y2="98.13079409646593" stroke="#94A3B8" stroke-width="1.5" marker-end="url(#arr-gray)"/><rect x="276.0" y="50.0" width="18" height="17" rx="3" fill="#FFFFFF" stroke="#FFFFFF"/><text x="285.0" y="62.0" font-size="11" fill="#475569" text-anchor="middle" font-weight="600">4</text><line x1="248.4150978608102" y1="166.28018639047338" x2="319.0695712902879" y2="120.35477866131286" stroke="#3B82F6" stroke-width="3" marker-end="url(#arr-blue)"/><rect x="276.0" y="122.5" width="18" height="17" rx="3" fill="#FFFFFF" stroke="#FFFFFF"/><text x="285.0" y="134.5" font-size="11" fill="#1E40AF" text-anchor="middle" font-weight="600">1</text><circle cx="30" cy="110" r="16" fill="#EFF6FF" stroke="#3B82F6" stroke-width="1.5"/><text x="30" y="114" font-size="12" fill="#1E40AF" text-anchor="middle" font-weight="600">A</text><circle cx="125" cy="30" r="16" fill="#EFF6FF" stroke="#3B82F6" stroke-width="1.5"/><text x="125" y="34" font-size="12" fill="#1E40AF" text-anchor="middle" font-weight="600">B</text><circle cx="125" cy="190" r="16" fill="#EFF6FF" stroke="#3B82F6" stroke-width="1.5"/><text x="125" y="194" font-size="12" fill="#1E40AF" text-anchor="middle" font-weight="600">C</text><circle cx="125" cy="110" r="16" fill="#EFF6FF" stroke="#3B82F6" stroke-width="1.5"/><text x="125" y="114" font-size="12" fill="#1E40AF" text-anchor="middle" font-weight="600">D</text><circle cx="235" cy="30" r="16" fill="#EFF6FF" stroke="#3B82F6" stroke-width="1.5"/><text x="235" y="34" font-size="12" fill="#1E40AF" text-anchor="middle" font-weight="600">E</text><circle cx="235" cy="175" r="16" fill="#EFF6FF" stroke="#3B82F6" stroke-width="1.5"/><text x="235" y="179" font-size="12" fill="#1E40AF" text-anchor="middle" font-weight="600">F</text><circle cx="335" cy="110" r="16" fill="#EFF6FF" stroke="#3B82F6" stroke-width="1.5"/><text x="335" y="114" font-size="12" fill="#1E40AF" text-anchor="middle" font-weight="600">G</text></g><text x="240" y="353" font-size="14" fill="#1E40AF" text-anchor="middle" font-weight="600">A → D → G</text><text x="240" y="380" font-size="12" fill="#475569" text-anchor="middle" font-weight="400">2 edges · cost 3 + 8 = 11</text><text x="720" y="344" font-size="12" fill="#1E40AF" text-anchor="middle" font-weight="600">A → C → F → G: 5 + 2 + 1 = 8</text><text x="720" y="369" font-size="12" fill="#1E40AF" text-anchor="middle" font-weight="600">A → D → F → G: 3 + 4 + 1 = 8</text><text x="720" y="396" font-size="12" fill="#475569" text-anchor="middle" font-weight="400">Both routes use 3 edges (4 nodes).</text></svg>