<?xml version="1.0" encoding="utf-8"?>
<svg xmlns="http://www.w3.org/2000/svg" xmlns:xlink="http://www.w3.org/1999/xlink" width="600" height="400" viewBox="0 0 2400 1600">
<defs>
  <clipPath id="clip200">
    <rect x="0" y="0" width="2400" height="1600"/>
  </clipPath>
</defs>
<path clip-path="url(#clip200)" d="M0 1600 L2400 1600 L2400 8.88178e-14 L0 8.88178e-14  Z" fill="#ffffff" fill-rule="evenodd" fill-opacity="1"/>
<defs>
  <clipPath id="clip201">
    <rect x="480" y="0" width="1681" height="1600"/>
  </clipPath>
</defs>
<path clip-path="url(#clip200)" d="M193.936 1486.45 L2352.76 1486.45 L2352.76 47.2441 L193.936 47.2441  Z" fill="#ffffff" fill-rule="evenodd" fill-opacity="1"/>
<defs>
  <clipPath id="clip202">
    <rect x="193" y="47" width="2160" height="1440"/>
  </clipPath>
</defs>
<polyline clip-path="url(#clip202)" style="stroke:#000000; stroke-linecap:round; stroke-linejoin:round; stroke-width:2; stroke-opacity:0.1; fill:none" points="463,1486.45 463,47.2441 "/>
<polyline clip-path="url(#clip202)" style="stroke:#000000; stroke-linecap:round; stroke-linejoin:round; stroke-width:2; stroke-opacity:0.1; fill:none" points="868.173,1486.45 868.173,47.2441 "/>
<polyline clip-path="url(#clip202)" style="stroke:#000000; stroke-linecap:round; stroke-linejoin:round; stroke-width:2; stroke-opacity:0.1; fill:none" points="1273.35,1486.45 1273.35,47.2441 "/>
<polyline clip-path="url(#clip202)" style="stroke:#000000; stroke-linecap:round; stroke-linejoin:round; stroke-width:2; stroke-opacity:0.1; fill:none" points="1678.52,1486.45 1678.52,47.2441 "/>
<polyline clip-path="url(#clip202)" style="stroke:#000000; stroke-linecap:round; stroke-linejoin:round; stroke-width:2; stroke-opacity:0.1; fill:none" points="2083.69,1486.45 2083.69,47.2441 "/>
<polyline clip-path="url(#clip200)" style="stroke:#000000; stroke-linecap:round; stroke-linejoin:round; stroke-width:4; stroke-opacity:1; fill:none" points="193.936,1486.45 2352.76,1486.45 "/>
<polyline clip-path="url(#clip200)" style="stroke:#000000; stroke-linecap:round; stroke-linejoin:round; stroke-width:4; stroke-opacity:1; fill:none" points="463,1486.45 463,1467.55 "/>
<polyline clip-path="url(#clip200)" style="stroke:#000000; stroke-linecap:round; stroke-linejoin:round; stroke-width:4; stroke-opacity:1; fill:none" points="868.173,1486.45 868.173,1467.55 "/>
<polyline clip-path="url(#clip200)" style="stroke:#000000; stroke-linecap:round; stroke-linejoin:round; stroke-width:4; stroke-opacity:1; fill:none" points="1273.35,1486.45 1273.35,1467.55 "/>
<polyline clip-path="url(#clip200)" style="stroke:#000000; stroke-linecap:round; stroke-linejoin:round; stroke-width:4; stroke-opacity:1; fill:none" points="1678.52,1486.45 1678.52,1467.55 "/>
<polyline clip-path="url(#clip200)" style="stroke:#000000; stroke-linecap:round; stroke-linejoin:round; stroke-width:4; stroke-opacity:1; fill:none" points="2083.69,1486.45 2083.69,1467.55 "/>
<path clip-path="url(#clip200)" d="M409.528 1532.02 L439.203 1532.02 L439.203 1535.95 L409.528 1535.95 L409.528 1532.02 Z" fill="#000000" fill-rule="nonzero" fill-opacity="1" /><path clip-path="url(#clip200)" d="M449.342 1514.29 L467.699 1514.29 L467.699 1518.22 L453.625 1518.22 L453.625 1526.7 Q454.643 1526.35 455.662 1526.19 Q456.68 1526 457.699 1526 Q463.486 1526 466.865 1529.17 Q470.245 1532.34 470.245 1537.76 Q470.245 1543.34 466.773 1546.44 Q463.301 1549.52 456.981 1549.52 Q454.805 1549.52 452.537 1549.15 Q450.291 1548.78 447.884 1548.04 L447.884 1543.34 Q449.967 1544.47 452.189 1545.03 Q454.412 1545.58 456.889 1545.58 Q460.893 1545.58 463.231 1543.48 Q465.569 1541.37 465.569 1537.76 Q465.569 1534.15 463.231 1532.04 Q460.893 1529.94 456.889 1529.94 Q455.014 1529.94 453.139 1530.35 Q451.287 1530.77 449.342 1531.65 L449.342 1514.29 Z" fill="#000000" fill-rule="nonzero" fill-opacity="1" /><path clip-path="url(#clip200)" d="M479.458 1542.97 L484.342 1542.97 L484.342 1548.85 L479.458 1548.85 L479.458 1542.97 Z" fill="#000000" fill-rule="nonzero" fill-opacity="1" /><path clip-path="url(#clip200)" d="M504.527 1517.37 Q500.916 1517.37 499.087 1520.93 Q497.282 1524.47 497.282 1531.6 Q497.282 1538.71 499.087 1542.27 Q500.916 1545.82 504.527 1545.82 Q508.161 1545.82 509.967 1542.27 Q511.796 1538.71 511.796 1531.6 Q511.796 1524.47 509.967 1520.93 Q508.161 1517.37 504.527 1517.37 M504.527 1513.66 Q510.337 1513.66 513.393 1518.27 Q516.472 1522.85 516.472 1531.6 Q516.472 1540.33 513.393 1544.94 Q510.337 1549.52 504.527 1549.52 Q498.717 1549.52 495.638 1544.94 Q492.583 1540.33 492.583 1531.6 Q492.583 1522.85 495.638 1518.27 Q498.717 1513.66 504.527 1513.66 Z" fill="#000000" fill-rule="nonzero" fill-opacity="1" /><path clip-path="url(#clip200)" d="M815.199 1532.02 L844.874 1532.02 L844.874 1535.95 L815.199 1535.95 L815.199 1532.02 Z" fill="#000000" fill-rule="nonzero" fill-opacity="1" /><path clip-path="url(#clip200)" d="M858.995 1544.91 L875.314 1544.91 L875.314 1548.85 L853.37 1548.85 L853.37 1544.91 Q856.032 1542.16 860.615 1537.53 Q865.221 1532.88 866.402 1531.53 Q868.647 1529.01 869.527 1527.27 Q870.43 1525.51 870.43 1523.82 Q870.43 1521.07 868.485 1519.33 Q866.564 1517.6 863.462 1517.6 Q861.263 1517.6 858.809 1518.36 Q856.379 1519.13 853.601 1520.68 L853.601 1515.95 Q856.425 1514.82 858.879 1514.24 Q861.333 1513.66 863.37 1513.66 Q868.74 1513.66 871.934 1516.35 Q875.129 1519.03 875.129 1523.52 Q875.129 1525.65 874.319 1527.57 Q873.532 1529.47 871.425 1532.07 Q870.846 1532.74 867.745 1535.95 Q864.643 1539.15 858.995 1544.91 Z" fill="#000000" fill-rule="nonzero" fill-opacity="1" /><path clip-path="url(#clip200)" d="M885.129 1542.97 L890.013 1542.97 L890.013 1548.85 L885.129 1548.85 L885.129 1542.97 Z" fill="#000000" fill-rule="nonzero" fill-opacity="1" /><path clip-path="url(#clip200)" d="M900.244 1514.29 L918.601 1514.29 L918.601 1518.22 L904.527 1518.22 L904.527 1526.7 Q905.545 1526.35 906.564 1526.19 Q907.582 1526 908.601 1526 Q914.388 1526 917.767 1529.17 Q921.147 1532.34 921.147 1537.76 Q921.147 1543.34 917.675 1546.44 Q914.203 1549.52 907.883 1549.52 Q905.707 1549.52 903.439 1549.15 Q901.193 1548.78 898.786 1548.04 L898.786 1543.34 Q900.869 1544.47 903.092 1545.03 Q905.314 1545.58 907.791 1545.58 Q911.795 1545.58 914.133 1543.48 Q916.471 1541.37 916.471 1537.76 Q916.471 1534.15 914.133 1532.04 Q911.795 1529.94 907.791 1529.94 Q905.916 1529.94 904.041 1530.35 Q902.189 1530.77 900.244 1531.65 L900.244 1514.29 Z" fill="#000000" fill-rule="nonzero" fill-opacity="1" /><path clip-path="url(#clip200)" d="M1250.73 1517.37 Q1247.12 1517.37 1245.29 1520.93 Q1243.49 1524.47 1243.49 1531.6 Q1243.49 1538.71 1245.29 1542.27 Q1247.12 1545.82 1250.73 1545.82 Q1254.36 1545.82 1256.17 1542.27 Q1258 1538.71 1258 1531.6 Q1258 1524.47 1256.17 1520.93 Q1254.36 1517.37 1250.73 1517.37 M1250.73 1513.66 Q1256.54 1513.66 1259.6 1518.27 Q1262.67 1522.85 1262.67 1531.6 Q1262.67 1540.33 1259.6 1544.94 Q1256.54 1549.52 1250.73 1549.52 Q1244.92 1549.52 1241.84 1544.94 Q1238.79 1540.33 1238.79 1531.6 Q1238.79 1522.85 1241.84 1518.27 Q1244.92 1513.66 1250.73 1513.66 Z" fill="#000000" fill-rule="nonzero" fill-opacity="1" /><path clip-path="url(#clip200)" d="M1270.89 1542.97 L1275.78 1542.97 L1275.78 1548.85 L1270.89 1548.85 L1270.89 1542.97 Z" fill="#000000" fill-rule="nonzero" fill-opacity="1" /><path clip-path="url(#clip200)" d="M1295.96 1517.37 Q1292.35 1517.37 1290.52 1520.93 Q1288.72 1524.47 1288.72 1531.6 Q1288.72 1538.71 1290.52 1542.27 Q1292.35 1545.82 1295.96 1545.82 Q1299.6 1545.82 1301.4 1542.27 Q1303.23 1538.71 1303.23 1531.6 Q1303.23 1524.47 1301.4 1520.93 Q1299.6 1517.37 1295.96 1517.37 M1295.96 1513.66 Q1301.77 1513.66 1304.83 1518.27 Q1307.91 1522.85 1307.91 1531.6 Q1307.91 1540.33 1304.83 1544.94 Q1301.77 1549.52 1295.96 1549.52 Q1290.15 1549.52 1287.07 1544.94 Q1284.02 1540.33 1284.02 1531.6 Q1284.02 1522.85 1287.07 1518.27 Q1290.15 1513.66 1295.96 1513.66 Z" fill="#000000" fill-rule="nonzero" fill-opacity="1" /><path clip-path="url(#clip200)" d="M1650.26 1544.91 L1666.57 1544.91 L1666.57 1548.85 L1644.63 1548.85 L1644.63 1544.91 Q1647.29 1542.16 1651.88 1537.53 Q1656.48 1532.88 1657.66 1531.53 Q1659.91 1529.01 1660.79 1527.27 Q1661.69 1525.51 1661.69 1523.82 Q1661.69 1521.07 1659.75 1519.33 Q1657.82 1517.6 1654.72 1517.6 Q1652.52 1517.6 1650.07 1518.36 Q1647.64 1519.13 1644.86 1520.68 L1644.86 1515.95 Q1647.69 1514.82 1650.14 1514.24 Q1652.59 1513.66 1654.63 1513.66 Q1660 1513.66 1663.2 1516.35 Q1666.39 1519.03 1666.39 1523.52 Q1666.39 1525.65 1665.58 1527.57 Q1664.79 1529.47 1662.69 1532.07 Q1662.11 1532.74 1659.01 1535.95 Q1655.9 1539.15 1650.26 1544.91 Z" fill="#000000" fill-rule="nonzero" fill-opacity="1" /><path clip-path="url(#clip200)" d="M1676.39 1542.97 L1681.27 1542.97 L1681.27 1548.85 L1676.39 1548.85 L1676.39 1542.97 Z" fill="#000000" fill-rule="nonzero" fill-opacity="1" /><path clip-path="url(#clip200)" d="M1691.51 1514.29 L1709.86 1514.29 L1709.86 1518.22 L1695.79 1518.22 L1695.79 1526.7 Q1696.81 1526.35 1697.82 1526.19 Q1698.84 1526 1699.86 1526 Q1705.65 1526 1709.03 1529.17 Q1712.41 1532.34 1712.41 1537.76 Q1712.41 1543.34 1708.94 1546.44 Q1705.46 1549.52 1699.14 1549.52 Q1696.97 1549.52 1694.7 1549.15 Q1692.45 1548.78 1690.05 1548.04 L1690.05 1543.34 Q1692.13 1544.47 1694.35 1545.03 Q1696.57 1545.58 1699.05 1545.58 Q1703.06 1545.58 1705.39 1543.48 Q1707.73 1541.37 1707.73 1537.76 Q1707.73 1534.15 1705.39 1532.04 Q1703.06 1529.94 1699.05 1529.94 Q1697.18 1529.94 1695.3 1530.35 Q1693.45 1530.77 1691.51 1531.65 L1691.51 1514.29 Z" fill="#000000" fill-rule="nonzero" fill-opacity="1" /><path clip-path="url(#clip200)" d="M2050.86 1514.29 L2069.21 1514.29 L2069.21 1518.22 L2055.14 1518.22 L2055.14 1526.7 Q2056.16 1526.35 2057.18 1526.19 Q2058.19 1526 2059.21 1526 Q2065 1526 2068.38 1529.17 Q2071.76 1532.34 2071.76 1537.76 Q2071.76 1543.34 2068.29 1546.44 Q2064.82 1549.52 2058.5 1549.52 Q2056.32 1549.52 2054.05 1549.15 Q2051.81 1548.78 2049.4 1548.04 L2049.4 1543.34 Q2051.48 1544.47 2053.7 1545.03 Q2055.93 1545.58 2058.4 1545.58 Q2062.41 1545.58 2064.75 1543.48 Q2067.08 1541.37 2067.08 1537.76 Q2067.08 1534.15 2064.75 1532.04 Q2062.41 1529.94 2058.4 1529.94 Q2056.53 1529.94 2054.65 1530.35 Q2052.8 1530.77 2050.86 1531.65 L2050.86 1514.29 Z" fill="#000000" fill-rule="nonzero" fill-opacity="1" /><path clip-path="url(#clip200)" d="M2080.97 1542.97 L2085.86 1542.97 L2085.86 1548.85 L2080.97 1548.85 L2080.97 1542.97 Z" fill="#000000" fill-rule="nonzero" fill-opacity="1" /><path clip-path="url(#clip200)" d="M2106.04 1517.37 Q2102.43 1517.37 2100.6 1520.93 Q2098.8 1524.47 2098.8 1531.6 Q2098.8 1538.71 2100.6 1542.27 Q2102.43 1545.82 2106.04 1545.82 Q2109.68 1545.82 2111.48 1542.27 Q2113.31 1538.71 2113.31 1531.6 Q2113.31 1524.47 2111.48 1520.93 Q2109.68 1517.37 2106.04 1517.37 M2106.04 1513.66 Q2111.85 1513.66 2114.91 1518.27 Q2117.99 1522.85 2117.99 1531.6 Q2117.99 1540.33 2114.91 1544.94 Q2111.85 1549.52 2106.04 1549.52 Q2100.23 1549.52 2097.15 1544.94 Q2094.1 1540.33 2094.1 1531.6 Q2094.1 1522.85 2097.15 1518.27 Q2100.23 1513.66 2106.04 1513.66 Z" fill="#000000" fill-rule="nonzero" fill-opacity="1" /><polyline clip-path="url(#clip202)" style="stroke:#000000; stroke-linecap:round; stroke-linejoin:round; stroke-width:2; stroke-opacity:0.1; fill:none" points="193.936,1445.72 2352.76,1445.72 "/>
<polyline clip-path="url(#clip202)" style="stroke:#000000; stroke-linecap:round; stroke-linejoin:round; stroke-width:2; stroke-opacity:0.1; fill:none" points="193.936,1106.29 2352.76,1106.29 "/>
<polyline clip-path="url(#clip202)" style="stroke:#000000; stroke-linecap:round; stroke-linejoin:round; stroke-width:2; stroke-opacity:0.1; fill:none" points="193.936,766.849 2352.76,766.849 "/>
<polyline clip-path="url(#clip202)" style="stroke:#000000; stroke-linecap:round; stroke-linejoin:round; stroke-width:2; stroke-opacity:0.1; fill:none" points="193.936,427.413 2352.76,427.413 "/>
<polyline clip-path="url(#clip202)" style="stroke:#000000; stroke-linecap:round; stroke-linejoin:round; stroke-width:2; stroke-opacity:0.1; fill:none" points="193.936,87.9763 2352.76,87.9763 "/>
<polyline clip-path="url(#clip200)" style="stroke:#000000; stroke-linecap:round; stroke-linejoin:round; stroke-width:4; stroke-opacity:1; fill:none" points="193.936,1486.45 193.936,47.2441 "/>
<polyline clip-path="url(#clip200)" style="stroke:#000000; stroke-linecap:round; stroke-linejoin:round; stroke-width:4; stroke-opacity:1; fill:none" points="193.936,1445.72 212.834,1445.72 "/>
<polyline clip-path="url(#clip200)" style="stroke:#000000; stroke-linecap:round; stroke-linejoin:round; stroke-width:4; stroke-opacity:1; fill:none" points="193.936,1106.29 212.834,1106.29 "/>
<polyline clip-path="url(#clip200)" style="stroke:#000000; stroke-linecap:round; stroke-linejoin:round; stroke-width:4; stroke-opacity:1; fill:none" points="193.936,766.849 212.834,766.849 "/>
<polyline clip-path="url(#clip200)" style="stroke:#000000; stroke-linecap:round; stroke-linejoin:round; stroke-width:4; stroke-opacity:1; fill:none" points="193.936,427.413 212.834,427.413 "/>
<polyline clip-path="url(#clip200)" style="stroke:#000000; stroke-linecap:round; stroke-linejoin:round; stroke-width:4; stroke-opacity:1; fill:none" points="193.936,87.9763 212.834,87.9763 "/>
<path clip-path="url(#clip200)" d="M50.9921 1446.17 L80.6679 1446.17 L80.6679 1450.11 L50.9921 1450.11 L50.9921 1446.17 Z" fill="#000000" fill-rule="nonzero" fill-opacity="1" /><path clip-path="url(#clip200)" d="M91.5706 1459.07 L99.2095 1459.07 L99.2095 1432.7 L90.8993 1434.37 L90.8993 1430.11 L99.1632 1428.44 L103.839 1428.44 L103.839 1459.07 L111.478 1459.07 L111.478 1463 L91.5706 1463 L91.5706 1459.07 Z" fill="#000000" fill-rule="nonzero" fill-opacity="1" /><path clip-path="url(#clip200)" d="M120.922 1457.12 L125.807 1457.12 L125.807 1463 L120.922 1463 L120.922 1457.12 Z" fill="#000000" fill-rule="nonzero" fill-opacity="1" /><path clip-path="url(#clip200)" d="M145.992 1431.52 Q142.381 1431.52 140.552 1435.09 Q138.746 1438.63 138.746 1445.76 Q138.746 1452.86 140.552 1456.43 Q142.381 1459.97 145.992 1459.97 Q149.626 1459.97 151.431 1456.43 Q153.26 1452.86 153.26 1445.76 Q153.26 1438.63 151.431 1435.09 Q149.626 1431.52 145.992 1431.52 M145.992 1427.82 Q151.802 1427.82 154.857 1432.42 Q157.936 1437.01 157.936 1445.76 Q157.936 1454.48 154.857 1459.09 Q151.802 1463.67 145.992 1463.67 Q140.181 1463.67 137.103 1459.09 Q134.047 1454.48 134.047 1445.76 Q134.047 1437.01 137.103 1432.42 Q140.181 1427.82 145.992 1427.82 Z" fill="#000000" fill-rule="nonzero" fill-opacity="1" /><path clip-path="url(#clip200)" d="M51.9875 1106.74 L81.6633 1106.74 L81.6633 1110.67 L51.9875 1110.67 L51.9875 1106.74 Z" fill="#000000" fill-rule="nonzero" fill-opacity="1" /><path clip-path="url(#clip200)" d="M101.756 1092.08 Q98.1447 1092.08 96.316 1095.65 Q94.5104 1099.19 94.5104 1106.32 Q94.5104 1113.43 96.316 1116.99 Q98.1447 1120.53 101.756 1120.53 Q105.39 1120.53 107.196 1116.99 Q109.024 1113.43 109.024 1106.32 Q109.024 1099.19 107.196 1095.65 Q105.39 1092.08 101.756 1092.08 M101.756 1088.38 Q107.566 1088.38 110.621 1092.99 Q113.7 1097.57 113.7 1106.32 Q113.7 1115.05 110.621 1119.65 Q107.566 1124.24 101.756 1124.24 Q95.9456 1124.24 92.8669 1119.65 Q89.8114 1115.05 89.8114 1106.32 Q89.8114 1097.57 92.8669 1092.99 Q95.9456 1088.38 101.756 1088.38 Z" fill="#000000" fill-rule="nonzero" fill-opacity="1" /><path clip-path="url(#clip200)" d="M121.918 1117.69 L126.802 1117.69 L126.802 1123.57 L121.918 1123.57 L121.918 1117.69 Z" fill="#000000" fill-rule="nonzero" fill-opacity="1" /><path clip-path="url(#clip200)" d="M137.033 1089.01 L155.39 1089.01 L155.39 1092.94 L141.316 1092.94 L141.316 1101.41 Q142.334 1101.07 143.353 1100.9 Q144.371 1100.72 145.39 1100.72 Q151.177 1100.72 154.556 1103.89 Q157.936 1107.06 157.936 1112.48 Q157.936 1118.06 154.464 1121.16 Q150.992 1124.24 144.672 1124.24 Q142.496 1124.24 140.228 1123.87 Q137.982 1123.5 135.575 1122.76 L135.575 1118.06 Q137.658 1119.19 139.881 1119.75 Q142.103 1120.3 144.58 1120.3 Q148.584 1120.3 150.922 1118.19 Q153.26 1116.09 153.26 1112.48 Q153.26 1108.87 150.922 1106.76 Q148.584 1104.65 144.58 1104.65 Q142.705 1104.65 140.83 1105.07 Q138.978 1105.49 137.033 1106.37 L137.033 1089.01 Z" fill="#000000" fill-rule="nonzero" fill-opacity="1" /><path clip-path="url(#clip200)" d="M100.76 752.648 Q97.1493 752.648 95.3206 756.212 Q93.515 759.754 93.515 766.884 Q93.515 773.99 95.3206 777.555 Q97.1493 781.097 100.76 781.097 Q104.395 781.097 106.2 777.555 Q108.029 773.99 108.029 766.884 Q108.029 759.754 106.2 756.212 Q104.395 752.648 100.76 752.648 M100.76 748.944 Q106.571 748.944 109.626 753.55 Q112.705 758.134 112.705 766.884 Q112.705 775.61 109.626 780.217 Q106.571 784.8 100.76 784.8 Q94.9502 784.8 91.8715 780.217 Q88.816 775.61 88.816 766.884 Q88.816 758.134 91.8715 753.55 Q94.9502 748.944 100.76 748.944 Z" fill="#000000" fill-rule="nonzero" fill-opacity="1" /><path clip-path="url(#clip200)" d="M120.922 778.249 L125.807 778.249 L125.807 784.129 L120.922 784.129 L120.922 778.249 Z" fill="#000000" fill-rule="nonzero" fill-opacity="1" /><path clip-path="url(#clip200)" d="M145.992 752.648 Q142.381 752.648 140.552 756.212 Q138.746 759.754 138.746 766.884 Q138.746 773.99 140.552 777.555 Q142.381 781.097 145.992 781.097 Q149.626 781.097 151.431 777.555 Q153.26 773.99 153.26 766.884 Q153.26 759.754 151.431 756.212 Q149.626 752.648 145.992 752.648 M145.992 748.944 Q151.802 748.944 154.857 753.55 Q157.936 758.134 157.936 766.884 Q157.936 775.61 154.857 780.217 Q151.802 784.8 145.992 784.8 Q140.181 784.8 137.103 780.217 Q134.047 775.61 134.047 766.884 Q134.047 758.134 137.103 753.55 Q140.181 748.944 145.992 748.944 Z" fill="#000000" fill-rule="nonzero" fill-opacity="1" /><path clip-path="url(#clip200)" d="M101.756 413.211 Q98.1447 413.211 96.316 416.776 Q94.5104 420.318 94.5104 427.447 Q94.5104 434.554 96.316 438.119 Q98.1447 441.66 101.756 441.66 Q105.39 441.66 107.196 438.119 Q109.024 434.554 109.024 427.447 Q109.024 420.318 107.196 416.776 Q105.39 413.211 101.756 413.211 M101.756 409.508 Q107.566 409.508 110.621 414.114 Q113.7 418.697 113.7 427.447 Q113.7 436.174 110.621 440.781 Q107.566 445.364 101.756 445.364 Q95.9456 445.364 92.8669 440.781 Q89.8114 436.174 89.8114 427.447 Q89.8114 418.697 92.8669 414.114 Q95.9456 409.508 101.756 409.508 Z" fill="#000000" fill-rule="nonzero" fill-opacity="1" /><path clip-path="url(#clip200)" d="M121.918 438.813 L126.802 438.813 L126.802 444.693 L121.918 444.693 L121.918 438.813 Z" fill="#000000" fill-rule="nonzero" fill-opacity="1" /><path clip-path="url(#clip200)" d="M137.033 410.133 L155.39 410.133 L155.39 414.068 L141.316 414.068 L141.316 422.54 Q142.334 422.193 143.353 422.031 Q144.371 421.846 145.39 421.846 Q151.177 421.846 154.556 425.017 Q157.936 428.188 157.936 433.605 Q157.936 439.183 154.464 442.285 Q150.992 445.364 144.672 445.364 Q142.496 445.364 140.228 444.994 Q137.982 444.623 135.575 443.882 L135.575 439.183 Q137.658 440.318 139.881 440.873 Q142.103 441.429 144.58 441.429 Q148.584 441.429 150.922 439.322 Q153.26 437.216 153.26 433.605 Q153.26 429.994 150.922 427.887 Q148.584 425.781 144.58 425.781 Q142.705 425.781 140.83 426.197 Q138.978 426.614 137.033 427.494 L137.033 410.133 Z" fill="#000000" fill-rule="nonzero" fill-opacity="1" /><path clip-path="url(#clip200)" d="M91.5706 101.321 L99.2095 101.321 L99.2095 74.9555 L90.8993 76.6222 L90.8993 72.3629 L99.1632 70.6963 L103.839 70.6963 L103.839 101.321 L111.478 101.321 L111.478 105.256 L91.5706 105.256 L91.5706 101.321 Z" fill="#000000" fill-rule="nonzero" fill-opacity="1" /><path clip-path="url(#clip200)" d="M120.922 99.3767 L125.807 99.3767 L125.807 105.256 L120.922 105.256 L120.922 99.3767 Z" fill="#000000" fill-rule="nonzero" fill-opacity="1" /><path clip-path="url(#clip200)" d="M145.992 73.775 Q142.381 73.775 140.552 77.3398 Q138.746 80.8814 138.746 88.011 Q138.746 95.1174 140.552 98.6822 Q142.381 102.224 145.992 102.224 Q149.626 102.224 151.431 98.6822 Q153.26 95.1174 153.26 88.011 Q153.26 80.8814 151.431 77.3398 Q149.626 73.775 145.992 73.775 M145.992 70.0713 Q151.802 70.0713 154.857 74.6777 Q157.936 79.261 157.936 88.011 Q157.936 96.7378 154.857 101.344 Q151.802 105.928 145.992 105.928 Q140.181 105.928 137.103 101.344 Q134.047 96.7378 134.047 88.011 Q134.047 79.261 137.103 74.6777 Q140.181 70.0713 145.992 70.0713 Z" fill="#000000" fill-rule="nonzero" fill-opacity="1" /><polyline clip-path="url(#clip202)" style="stroke:#009af9; stroke-linecap:round; stroke-linejoin:round; stroke-width:4; stroke-opacity:1; fill:none" points="255.035,766.849 258.35,752.965 261.664,739.086 264.979,725.219 268.294,711.37 283.62,647.733 298.945,585.16 314.27,524.211 329.596,465.429 337.259,437.017 344.921,409.341 352.584,382.465 360.247,356.448 367.91,331.348 375.572,307.221 383.235,284.122 390.898,262.101 400.108,237.132 409.318,213.872 418.527,192.398 427.737,172.778 436.947,155.076 446.157,139.349 455.367,125.649 464.577,114.018 472.364,105.827 480.151,99.1622 487.938,94.0382 495.725,90.4672 503.512,88.4572 511.299,88.013 519.085,89.1356 526.872,91.8224 535.331,96.5061 543.79,103.015 552.249,111.333 560.707,121.435 569.166,133.295 577.625,146.881 586.084,162.155 594.542,179.076 602.341,196.095 610.139,214.435 617.937,234.053 625.735,254.905 633.533,276.942 641.332,300.113 649.13,324.365 656.928,349.64 665.289,377.809 673.649,407.014 682.01,437.175 690.37,468.214 707.091,532.59 723.812,599.458 762.558,760.012 801.304,920.955 818.52,990.187 835.737,1056.9 844.345,1089.08 852.953,1120.35 861.561,1150.62 870.17,1179.8 877.718,1204.44 885.267,1228.14 892.815,1250.83 900.364,1272.47 907.913,1293.01 915.461,1312.41 923.01,1330.63 930.558,1347.63 938.788,1364.72 947.018,1380.27 955.248,1394.25 963.478,1406.6 971.708,1417.3 979.938,1426.33 988.168,1433.66 996.398,1439.27 1004.68,1443.16 1012.96,1445.29 1021.24,1445.64 1029.51,1444.23 1037.79,1441.05 1046.07,1436.11 1054.35,1429.43 1062.63,1421.01 1071.78,1409.72 1080.94,1396.39 1090.09,1381.04 1099.24,1363.74 1108.4,1344.53 1117.55,1323.48 1126.7,1300.65 1135.86,1276.13 1144.57,1251.28 1153.28,1225.03 1161.98,1197.47 1170.69,1168.66 1179.4,1138.69 1188.11,1107.64 1196.82,1075.61 1205.53,1042.69 1223.64,971.798 1241.75,898.347 1259.86,823.254 1277.98,747.458 1293.22,683.803 1308.47,620.882 1323.71,559.252 1338.96,499.457 1348.27,464.086 1357.57,429.712 1366.88,396.449 1376.19,364.408 1385.49,333.693 1394.8,304.407 1404.11,276.645 1413.41,250.498 1421.94,228.039 1430.46,207.07 1438.99,187.649 1447.51,169.831 1456.04,153.665 1464.57,139.195 1473.09,126.462 1481.62,115.5 1489.49,106.976 1497.36,100.009 1505.24,94.6161 1513.11,90.8094 1520.99,88.5982 1528.86,87.9876 1536.73,88.9791 1544.61,91.5702 1552.58,95.8197 1560.56,101.694 1568.54,109.179 1576.51,118.257 1584.49,128.905 1592.46,141.098 1600.44,154.806 1608.42,169.997 1617.36,188.737 1626.29,209.235 1635.23,231.429 1644.17,255.251 1653.11,280.629 1662.05,307.486 1670.99,335.74 1679.93,365.305 1688.03,393.153 1696.13,421.935 1704.23,451.577 1712.33,482.007 1728.53,544.924 1744.73,610.056 1781.83,764.016 1818.92,918.123 1836.1,987.273 1853.27,1053.95 1861.86,1086.13 1870.44,1117.41 1879.03,1147.7 1887.62,1176.93 1896.08,1204.62 1904.55,1231.11 1913.01,1256.34 1921.48,1280.23 1929.95,1302.72 1938.41,1323.75 1946.88,1343.26 1955.34,1361.2 1963.56,1377.07 1971.78,1391.36 1980,1404.05 1988.22,1415.11 1996.44,1424.49 2004.66,1432.19 2012.88,1438.17 2021.1,1442.42 2029.53,1444.98 2037.95,1445.71 2046.38,1444.6 2054.8,1441.67 2063.23,1436.9 2071.66,1430.33 2080.08,1421.96 2088.51,1411.83 2097.74,1398.72 2106.97,1383.57 2116.2,1366.41 2125.44,1347.31 2134.67,1326.33 2143.9,1303.53 2153.13,1278.99 2162.36,1252.79 2175.77,1211.94 2189.18,1168.05 2202.59,1121.42 2216,1072.36 2229.42,1021.2 2242.83,968.311 2256.24,914.039 2269.65,858.76 2275.15,835.875 2280.65,812.911 2286.15,789.893 2291.66,766.849 "/>
<polyline clip-path="url(#clip202)" style="stroke:#e26f46; stroke-linecap:round; stroke-linejoin:round; stroke-width:4; stroke-opacity:1; fill:none" points="255.035,87.9763 258.35,88.1183 261.664,88.5442 264.979,89.2539 268.294,90.247 275.957,93.6253 283.62,98.5082 291.282,104.885 298.945,112.741 306.608,122.059 314.27,132.818 321.933,144.995 329.596,158.561 337.259,173.487 344.921,189.738 352.584,207.28 360.247,226.073 367.91,246.074 375.572,267.239 383.235,289.52 390.898,312.869 400.108,342.27 409.318,373.041 418.527,405.084 427.737,438.295 436.947,472.567 446.157,507.788 455.367,543.846 464.577,580.624 495.725,708.748 526.872,839.01 543.79,908.952 560.707,977.346 577.625,1043.45 594.542,1106.54 602.341,1134.42 610.139,1161.45 617.937,1187.56 625.735,1212.7 633.533,1236.81 641.332,1259.83 649.13,1281.7 656.928,1302.39 665.289,1323.19 673.649,1342.51 682.01,1360.3 690.37,1376.51 698.731,1391.1 707.091,1404.02 715.452,1415.25 723.812,1424.76 733.499,1433.58 743.185,1440.03 752.872,1444.07 762.558,1445.69 772.245,1444.88 781.931,1441.66 791.617,1436.02 801.304,1428 809.912,1418.89 818.52,1407.93 827.129,1395.17 835.737,1380.64 844.345,1364.37 852.953,1346.42 861.561,1326.84 870.17,1305.68 877.718,1285.87 885.267,1264.93 892.815,1242.91 900.364,1219.86 907.913,1195.83 915.461,1170.86 923.01,1145.03 930.558,1118.37 947.018,1057.67 963.478,993.979 979.938,927.946 996.398,860.253 1029.51,721.869 1062.63,585.356 1071.78,548.719 1080.94,512.778 1090.09,477.647 1099.24,443.438 1108.4,410.26 1117.55,378.22 1126.7,347.419 1135.86,317.955 1144.57,291.249 1153.28,265.916 1161.98,242.029 1170.69,219.657 1179.4,198.865 1188.11,179.713 1196.82,162.256 1205.53,146.544 1214.59,132.108 1223.64,119.652 1232.7,109.217 1241.75,100.834 1250.81,94.5294 1259.86,90.3236 1268.92,88.2294 1277.98,88.2533 1285.6,89.9154 1293.22,93.0749 1300.84,97.7246 1308.47,103.854 1316.09,111.451 1323.71,120.496 1331.34,130.972 1338.96,142.854 1348.27,159.229 1357.57,177.607 1366.88,197.927 1376.19,220.123 1385.49,244.121 1394.8,269.843 1404.11,297.202 1413.41,326.111 1421.94,353.87 1430.46,382.772 1438.99,412.736 1447.51,443.68 1464.57,508.162 1481.62,575.505 1513.11,704.892 1544.61,836.611 1560.56,902.632 1576.51,967.339 1592.46,1030.11 1608.42,1090.32 1617.36,1122.73 1626.29,1154.06 1635.23,1184.21 1644.17,1213.09 1653.11,1240.62 1662.05,1266.7 1670.99,1291.27 1679.93,1314.23 1688.03,1333.61 1696.13,1351.57 1704.23,1368.07 1712.33,1383.07 1720.43,1396.53 1728.53,1408.42 1736.63,1418.71 1744.73,1427.37 1754,1435.25 1763.28,1440.95 1772.55,1444.44 1781.83,1445.72 1791.1,1444.77 1800.37,1441.6 1809.65,1436.22 1818.92,1428.65 1827.51,1419.71 1836.1,1408.94 1844.68,1396.37 1853.27,1382.02 1861.86,1365.96 1870.44,1348.21 1879.03,1328.83 1887.62,1307.87 1896.08,1285.72 1904.55,1262.16 1913.01,1237.24 1921.48,1211.04 1929.95,1183.63 1938.41,1155.08 1946.88,1125.48 1955.34,1094.89 1971.78,1033.02 1988.22,968.418 2004.66,901.741 2021.1,833.676 2054.8,692.753 2088.51,555.022 2097.74,518.646 2106.97,483.075 2116.2,448.425 2125.44,414.808 2134.67,382.333 2143.9,351.105 2153.13,321.226 2162.36,292.792 2169.07,273.098 2175.77,254.25 2182.48,236.279 2189.18,219.216 2195.89,203.09 2202.59,187.929 2209.3,173.759 2216,160.604 2222.71,148.486 2229.42,137.427 2236.12,127.446 2242.83,118.558 2249.53,110.78 2256.24,104.125 2262.94,98.604 2269.65,94.2269 2275.15,91.4946 2280.65,89.5407 2286.15,88.3675 2291.66,87.9763 "/>
<path clip-path="url(#clip200)" d="M265.897 1438.47 L534.209 1438.47 L534.209 1282.95 L265.897 1282.95  Z" fill="#ffffff" fill-rule="evenodd" fill-opacity="1"/>
<polyline clip-path="url(#clip200)" style="stroke:#000000; stroke-linecap:round; stroke-linejoin:round; stroke-width:4; stroke-opacity:1; fill:none" points="265.897,1438.47 534.209,1438.47 534.209,1282.95 265.897,1282.95 265.897,1438.47 "/>
<polyline clip-path="url(#clip200)" style="stroke:#009af9; stroke-linecap:round; stroke-linejoin:round; stroke-width:4; stroke-opacity:1; fill:none" points="289.884,1334.79 433.805,1334.79 "/>
<path clip-path="url(#clip200)" d="M471.634 1354.48 Q469.829 1359.11 468.116 1360.52 Q466.403 1361.94 463.532 1361.94 L460.13 1361.94 L460.13 1358.37 L462.63 1358.37 Q464.389 1358.37 465.361 1357.54 Q466.333 1356.7 467.514 1353.6 L468.278 1351.66 L457.792 1326.15 L462.306 1326.15 L470.407 1346.43 L478.509 1326.15 L483.023 1326.15 L471.634 1354.48 Z" fill="#000000" fill-rule="nonzero" fill-opacity="1" /><path clip-path="url(#clip200)" d="M490.315 1348.14 L497.954 1348.14 L497.954 1321.77 L489.643 1323.44 L489.643 1319.18 L497.907 1317.51 L502.583 1317.51 L502.583 1348.14 L510.222 1348.14 L510.222 1352.07 L490.315 1352.07 L490.315 1348.14 Z" fill="#000000" fill-rule="nonzero" fill-opacity="1" /><polyline clip-path="url(#clip200)" style="stroke:#e26f46; stroke-linecap:round; stroke-linejoin:round; stroke-width:4; stroke-opacity:1; fill:none" points="289.884,1386.63 433.805,1386.63 "/>
<path clip-path="url(#clip200)" d="M471.634 1406.32 Q469.829 1410.95 468.116 1412.36 Q466.403 1413.78 463.532 1413.78 L460.13 1413.78 L460.13 1410.21 L462.63 1410.21 Q464.389 1410.21 465.361 1409.38 Q466.333 1408.54 467.514 1405.44 L468.278 1403.5 L457.792 1377.99 L462.306 1377.99 L470.407 1398.27 L478.509 1377.99 L483.023 1377.99 L471.634 1406.32 Z" fill="#000000" fill-rule="nonzero" fill-opacity="1" /><path clip-path="url(#clip200)" d="M493.532 1399.98 L509.852 1399.98 L509.852 1403.91 L487.907 1403.91 L487.907 1399.98 Q490.569 1397.22 495.153 1392.6 Q499.759 1387.94 500.94 1386.6 Q503.185 1384.08 504.065 1382.34 Q504.967 1380.58 504.967 1378.89 Q504.967 1376.14 503.023 1374.4 Q501.102 1372.66 498 1372.66 Q495.801 1372.66 493.347 1373.43 Q490.917 1374.19 488.139 1375.74 L488.139 1371.02 Q490.963 1369.89 493.417 1369.31 Q495.87 1368.73 497.907 1368.73 Q503.278 1368.73 506.472 1371.41 Q509.666 1374.1 509.666 1378.59 Q509.666 1380.72 508.856 1382.64 Q508.069 1384.54 505.963 1387.13 Q505.384 1387.8 502.282 1391.02 Q499.18 1394.22 493.532 1399.98 Z" fill="#000000" fill-rule="nonzero" fill-opacity="1" /></svg>
